<svg width="22" height="23" viewBox="0 0 22 23" fill="none" xmlns="http://www.w3.org/2000/svg">
<path d="M16.3326 11.5057C16.3326 11.9946 16.7326 12.3946 17.2215 12.3946H18.9992C19.4881 12.3946 19.8881 11.9946 19.8881 11.5057C19.8881 11.0168 19.4881 10.6168 18.9992 10.6168H17.2215C16.7326 10.6168 16.3326 11.0168 16.3326 11.5057Z" fill="black"/>
<path d="M15.0792 15.7901C14.7859 16.1812 14.8659 16.7235 15.257 17.0079C15.7281 17.3546 16.2259 17.7279 16.697 18.0835C17.0881 18.3768 17.6392 18.2968 17.9237 17.9057C17.9237 17.8968 17.9326 17.8968 17.9326 17.8879C18.2259 17.4968 18.1459 16.9457 17.7548 16.6612C17.2837 16.3057 16.7859 15.9324 16.3237 15.5857C15.9326 15.2924 15.3815 15.3812 15.0881 15.7723C15.0881 15.7812 15.0792 15.7901 15.0792 15.7901Z" fill="black"/>
<path d="M17.9415 5.11457C17.9415 5.10568 17.9326 5.10568 17.9326 5.09679C17.6392 4.70568 17.0881 4.62568 16.7059 4.91902C16.2348 5.27457 15.7281 5.6479 15.2659 6.00346C14.8748 6.29679 14.8037 6.8479 15.097 7.23013C15.097 7.23902 15.1059 7.23902 15.1059 7.24791C15.3992 7.63902 15.9415 7.71902 16.3326 7.42568C16.8037 7.07902 17.3015 6.69679 17.7726 6.34124C18.1548 6.05679 18.2259 5.50568 17.9415 5.11457Z" fill="black"/>
<path d="M7.44368 8.83902H3.88813C2.91035 8.83902 2.11035 9.63902 2.11035 10.6168V12.3946C2.11035 13.3723 2.91035 14.1723 3.88813 14.1723H4.77702V16.839C4.77702 17.3279 5.17702 17.7279 5.66591 17.7279C6.1548 17.7279 6.5548 17.3279 6.5548 16.839V14.1723H7.44368L11.8881 16.839V6.17235L7.44368 8.83902Z" fill="black"/>
<path d="M14.1104 11.5057C14.1104 10.3235 13.5948 9.25679 12.777 8.5279V14.4746C13.5948 13.7546 14.1104 12.6879 14.1104 11.5057Z" fill="black"/>
</svg>
