<svg width="46" height="46" viewBox="0 0 46 46" fill="none" xmlns="http://www.w3.org/2000/svg">
<path d="M40.25 23.25C40.25 32.7734 32.5234 40.5 23 40.5C13.4766 40.5 5.75 32.7734 5.75 23.25C5.75 13.7266 13.4766 6 23 6C32.5234 6 40.25 13.7266 40.25 23.25Z" fill="#FFEF2B"/>
<path fill-rule="evenodd" clip-rule="evenodd" d="M27.6102 13.421C27.0488 12.8597 26.1387 12.8597 25.5773 13.421L16.9523 22.046C16.3909 22.6074 16.3909 23.5176 16.9523 24.079L25.5773 32.704C26.1387 33.2653 27.0488 33.2653 27.6102 32.704C28.1716 32.1426 28.1716 31.2324 27.6102 30.671L20.0017 23.0625L27.6102 15.454C28.1716 14.8926 28.1716 13.9824 27.6102 13.421Z" fill="black"/>
</svg>
