<svg width="46" height="46" viewBox="0 0 46 46" fill="none" xmlns="http://www.w3.org/2000/svg">
<path d="M5.75 23.25C5.75 32.7734 13.4766 40.5 23 40.5C32.5234 40.5 40.25 32.7734 40.25 23.25C40.25 13.7266 32.5234 6 23 6C13.4766 6 5.75 13.7266 5.75 23.25Z" fill="white" fill-opacity="0.38"/>
<path fill-rule="evenodd" clip-rule="evenodd" d="M18.3898 13.421C18.9512 12.8597 19.8613 12.8597 20.4227 13.421L29.0477 22.046C29.6091 22.6074 29.6091 23.5176 29.0477 24.079L20.4227 32.704C19.8613 33.2653 18.9512 33.2653 18.3898 32.704C17.8284 32.1426 17.8284 31.2324 18.3898 30.671L25.9983 23.0625L18.3898 15.454C17.8284 14.8926 17.8284 13.9824 18.3898 13.421Z" fill="white"/>
</svg>
