<svg width="47" height="46" viewBox="0 0 47 46" fill="none" xmlns="http://www.w3.org/2000/svg">
<path d="M40.5 23.25C40.5 32.7734 32.7734 40.5 23.25 40.5C13.7266 40.5 6 32.7734 6 23.25C6 13.7266 13.7266 6 23.25 6C32.7734 6 40.5 13.7266 40.5 23.25Z" fill="white" fill-opacity="0.38"/>
<path fill-rule="evenodd" clip-rule="evenodd" d="M27.8602 13.421C27.2988 12.8597 26.3887 12.8597 25.8273 13.421L17.2023 22.046C16.6409 22.6074 16.6409 23.5176 17.2023 24.079L25.8273 32.704C26.3887 33.2653 27.2988 33.2653 27.8602 32.704C28.4216 32.1426 28.4216 31.2324 27.8602 30.671L20.2517 23.0625L27.8602 15.454C28.4216 14.8926 28.4216 13.9824 27.8602 13.421Z" fill="white"/>
</svg>
