<svg width="46" height="32" viewBox="0 0 46 32" fill="none" xmlns="http://www.w3.org/2000/svg">
<path d="M8.76259 18.7836C8.64686 18.6957 8.50789 18.6466 8.36436 18.6428C8.22082 18.639 8.0796 18.6807 7.95968 18.7624C7.83975 18.844 7.74688 18.9617 7.69353 19.0996C7.64019 19.2375 7.62893 19.3889 7.66128 19.5336C9.22139 26.6618 15.3942 32 22.7509 32C24.3132 32.0005 25.8664 31.7553 27.3574 31.2727C27.495 31.2289 27.6162 31.1423 27.7048 31.0249C27.7933 30.9074 27.8448 30.7647 27.8524 30.616C27.86 30.4673 27.8232 30.3197 27.7471 30.1933C27.671 30.0669 27.5592 29.9677 27.4268 29.9091C24.1323 28.4072 20.92 26.7195 17.8042 24.8536C14.686 23.0017 11.6676 20.9753 8.76259 18.7836ZM43.5571 23.5918C43.1888 23.0845 42.7564 22.5518 42.2651 21.9982C42.1045 21.8153 41.9011 21.6782 41.6745 21.6001C41.4478 21.5221 41.2056 21.5057 40.9711 21.5525C40.7365 21.5994 40.5176 21.7079 40.3354 21.8676C40.1532 22.0274 40.0138 22.2329 39.9306 22.4645C39.9306 22.4791 39.9209 22.4927 39.9157 22.5073C39.828 22.7535 39.8075 23.0199 39.8563 23.2774C39.9052 23.5349 40.0215 23.7735 40.1925 23.9673C42.1912 26.24 42.5147 27.4682 42.4321 27.7273C42.2563 27.93 40.9335 28.3536 37.321 27.4064C36.8036 27.2706 36.2376 27.1052 35.6229 26.91C35.2268 26.7839 34.8228 26.6479 34.4109 26.5018C35.058 25.7342 35.633 24.9047 36.1283 24.0245C36.1433 23.9982 36.1591 23.9718 36.174 23.9445C37.5158 21.5269 38.2213 18.7877 38.2202 16C38.2205 15.423 38.1912 14.8465 38.1323 14.2727C37.2911 6.25728 30.7141 2.52482e-06 22.7509 2.52482e-06C19.3721 -0.00196359 16.0863 1.1444 13.399 3.26273C11.7702 4.54494 10.4015 6.14631 9.37081 7.97546C9.35675 8.00182 9.34093 8.02818 9.32599 8.05455C8.83616 8.93718 8.42911 9.86626 8.11042 10.8291C7.78287 10.5339 7.46674 10.2409 7.16204 9.95C6.6883 9.49546 6.26816 9.07455 5.89462 8.67727C3.2956 5.92637 2.98621 4.53091 3.06795 4.27273C3.24374 4.07 4.43382 3.73909 7.34135 4.39182C7.58992 4.44836 7.84874 4.43324 8.08958 4.34812C8.33043 4.263 8.54407 4.11114 8.70722 3.90909L8.73886 3.86909C8.89051 3.6806 8.99278 3.45497 9.03586 3.21384C9.07894 2.9727 9.06138 2.72417 8.98488 2.49207C8.90837 2.25997 8.77549 2.05211 8.59896 1.88841C8.42244 1.72472 8.20821 1.61069 7.97682 1.55728C7.28672 1.39555 6.58911 1.27023 5.8867 1.18182C3.18661 0.860912 1.41906 1.41091 0.632415 2.81818C0.347639 3.32546 0.0742894 4.19 0.393344 5.41818C0.865333 7.24182 2.54762 9.45455 4.92866 11.7727C5.68719 12.5118 6.51602 13.2609 7.40024 14.0127C8.04362 14.5582 8.71864 15.1091 9.413 15.6564C9.8765 16.02 10.3497 16.3836 10.8325 16.7473C11.3153 17.1109 11.8046 17.4679 12.3003 17.8182C14.5337 19.4191 16.8936 20.9564 19.2079 22.3355C20.0481 22.8361 20.8872 23.3209 21.7252 23.79C22.5631 24.2591 23.3943 24.7079 24.2187 25.1364C26.1436 26.1364 28.0289 27.0382 29.8316 27.8118C30.6045 28.1439 31.3607 28.4518 32.1001 28.7355C33.1452 29.1373 34.1542 29.4909 35.1158 29.7891L35.2125 29.8191C37.474 30.5155 39.3804 30.8818 40.8799 30.91H41.0328C42.9348 30.91 44.2233 30.33 44.8632 29.1827C45.6622 27.7627 45.2218 25.8809 43.5571 23.5918Z" fill="#FFB700"/>
</svg>
