<svg width="151" height="116" viewBox="0 0 151 116" fill="none" xmlns="http://www.w3.org/2000/svg">
<path d="M0.25 116L33.1245 43.2065L35.4727 58.7045C29.837 58.7045 24.6711 57.4521 19.9747 54.9474C15.5914 52.1296 11.9909 48.529 9.17308 44.1457C6.66836 39.4494 5.41599 34.4399 5.41599 29.1174C5.41599 23.7949 6.66836 18.942 9.17308 14.5587C11.9909 10.1754 15.5914 6.73145 19.9747 4.22672C24.6711 1.40891 29.837 0 35.4727 0C41.1083 0 46.1177 1.40891 50.501 4.22672C55.1974 6.73145 58.7979 10.332 61.3026 15.0283C64.1205 19.4116 65.5294 24.7341 65.5294 30.9959C65.5294 36.6316 64.4335 42.7368 62.2419 49.3118C60.0503 55.5736 55.8236 64.1835 49.5617 75.1417L26.5496 116H0.25ZM84.7844 116L117.659 43.2065L120.007 58.7045C114.371 58.7045 109.205 57.4521 104.509 54.9474C100.126 52.1296 96.5253 48.529 93.7075 44.1457C91.2028 39.4494 89.9504 34.4399 89.9504 29.1174C89.9504 23.7949 91.2028 18.942 93.7075 14.5587C96.5253 10.1754 100.126 6.73145 104.509 4.22672C109.205 1.40891 114.371 0 120.007 0C125.643 0 130.652 1.40891 135.035 4.22672C139.732 6.73145 143.332 10.332 145.837 15.0283C148.655 19.4116 150.064 24.7341 150.064 30.9959C150.064 36.6316 148.968 42.7368 146.776 49.3118C144.585 55.5736 140.358 64.1835 134.096 75.1417L111.084 116H84.7844Z" fill="#004E9F" fill-opacity="0.07"/>
</svg>
