<svg width="24" height="24" viewBox="0 0 24 24" fill="none" xmlns="http://www.w3.org/2000/svg">
<path d="M2 22L16 8" stroke="white" stroke-width="2" stroke-linecap="round" stroke-linejoin="round"/>
<path d="M3.47046 12.53L5.00046 11L6.53046 12.53C7.18386 13.186 7.55072 14.0741 7.55072 15C7.55072 15.9259 7.18386 16.814 6.53046 17.47L5.00046 19L3.47046 17.47C2.81706 16.814 2.4502 15.9259 2.4502 15C2.4502 14.0741 2.81706 13.186 3.47046 12.53Z" stroke="white" stroke-width="2" stroke-linecap="round" stroke-linejoin="round"/>
<path d="M7.47046 8.53L9.00046 7L10.5305 8.53C11.1839 9.18598 11.5507 10.0741 11.5507 11C11.5507 11.9259 11.1839 12.814 10.5305 13.47L9.00046 15L7.47046 13.47C6.81706 12.814 6.4502 11.9259 6.4502 11C6.4502 10.0741 6.81706 9.18598 7.47046 8.53Z" stroke="white" stroke-width="2" stroke-linecap="round" stroke-linejoin="round"/>
<path d="M11.4705 4.53L13.0005 3L14.5305 4.53C15.1839 5.18598 15.5507 6.07413 15.5507 7C15.5507 7.92587 15.1839 8.81402 14.5305 9.47L13.0005 11L11.4705 9.47C10.8171 8.81402 10.4502 7.92587 10.4502 7C10.4502 6.07413 10.8171 5.18598 11.4705 4.53Z" stroke="white" stroke-width="2" stroke-linecap="round" stroke-linejoin="round"/>
<path d="M20 2H22V4C22 5.06087 21.5786 6.07828 20.8284 6.82843C20.0783 7.57857 19.0609 8 18 8H16V6C16 4.93913 16.4214 3.92172 17.1716 3.17157C17.9217 2.42143 18.9391 2 20 2Z" stroke="white" stroke-width="2" stroke-linecap="round" stroke-linejoin="round"/>
<path d="M11.47 17.4695L13 18.9995L11.47 20.5295C10.814 21.1829 9.92587 21.5497 9 21.5497C8.07413 21.5497 7.18598 21.1829 6.53 20.5295L5 18.9995L6.53 17.4695C7.18598 16.8161 8.07413 16.4492 9 16.4492C9.92587 16.4492 10.814 16.8161 11.47 17.4695Z" stroke="white" stroke-width="2" stroke-linecap="round" stroke-linejoin="round"/>
<path d="M15.47 13.4695L17 14.9995L15.47 16.5295C14.814 17.1829 13.9259 17.5497 13 17.5497C12.0741 17.5497 11.186 17.1829 10.53 16.5295L9 14.9995L10.53 13.4695C11.186 12.8161 12.0741 12.4492 13 12.4492C13.9259 12.4492 14.814 12.8161 15.47 13.4695Z" stroke="white" stroke-width="2" stroke-linecap="round" stroke-linejoin="round"/>
<path d="M19.47 9.46948L21 10.9995L19.47 12.5295C18.814 13.1829 17.9259 13.5497 17 13.5497C16.0741 13.5497 15.186 13.1829 14.53 12.5295L13 10.9995L14.53 9.46948C15.186 8.81608 16.0741 8.44922 17 8.44922C17.9259 8.44922 18.814 8.81608 19.47 9.46948Z" stroke="white" stroke-width="2" stroke-linecap="round" stroke-linejoin="round"/>
</svg>
