<svg width="25" height="25" viewBox="0 0 25 25" fill="none" xmlns="http://www.w3.org/2000/svg">
<g id="add-circle-outline">
<path id="Vector (Stroke)" fill-rule="evenodd" clip-rule="evenodd" d="M2.75 12.1797C2.75 6.79672 7.11704 2.42969 12.5 2.42969C17.883 2.42969 22.25 6.79672 22.25 12.1797C22.25 17.5627 17.883 21.9297 12.5 21.9297C7.11704 21.9297 2.75 17.5627 2.75 12.1797ZM12.5 3.92969C7.94546 3.92969 4.25 7.62515 4.25 12.1797C4.25 16.7342 7.94546 20.4297 12.5 20.4297C17.0545 20.4297 20.75 16.7342 20.75 12.1797C20.75 7.62515 17.0545 3.92969 12.5 3.92969Z" fill="#000000"/>
<path id="Vector (Stroke)_2" fill-rule="evenodd" clip-rule="evenodd" d="M12.5 7.67969C12.9142 7.67969 13.25 8.01547 13.25 8.42969V11.4297H16.25C16.6642 11.4297 17 11.7655 17 12.1797C17 12.5939 16.6642 12.9297 16.25 12.9297H13.25V15.9297C13.25 16.3439 12.9142 16.6797 12.5 16.6797C12.0858 16.6797 11.75 16.3439 11.75 15.9297V12.9297H8.75C8.33579 12.9297 8 12.5939 8 12.1797C8 11.7655 8.33579 11.4297 8.75 11.4297H11.75V8.42969C11.75 8.01547 12.0858 7.67969 12.5 7.67969Z" fill="#000000"/>
</g>
</svg>
