<svg width="25" height="25" viewBox="0 0 25 25" fill="none" xmlns="http://www.w3.org/2000/svg">
<path d="M22.8402 11.1424L22.8327 11.1391L2.81328 2.83563C2.6449 2.76516 2.46167 2.73752 2.27999 2.75519C2.09831 2.77286 1.92384 2.83528 1.77219 2.93688C1.61197 3.04187 1.48036 3.18504 1.38921 3.35352C1.29805 3.52199 1.25022 3.71049 1.25 3.90204V9.21251C1.25009 9.47438 1.34153 9.72801 1.50856 9.92969C1.67558 10.1314 1.90774 10.2685 2.165 10.3174L13.0836 12.3363C13.1265 12.3444 13.1652 12.3672 13.1931 12.4009C13.2209 12.4345 13.2362 12.4768 13.2362 12.5205C13.2362 12.5641 13.2209 12.6064 13.1931 12.6401C13.1652 12.6737 13.1265 12.6966 13.0836 12.7047L2.16547 14.7236C1.90828 14.7724 1.67614 14.9093 1.50903 15.1108C1.34193 15.3123 1.25033 15.5657 1.25 15.8275V21.1389C1.24988 21.3218 1.29517 21.5019 1.38181 21.663C1.46845 21.8241 1.59373 21.9612 1.74641 22.0619C1.93006 22.1839 2.1456 22.2491 2.36609 22.2494C2.51938 22.2493 2.6711 22.2185 2.81234 22.1589L22.8313 13.9028L22.8402 13.8986C23.1096 13.7828 23.3392 13.5905 23.5006 13.3456C23.6619 13.1006 23.7479 12.8138 23.7479 12.5205C23.7479 12.2272 23.6619 11.9403 23.5006 11.6954C23.3392 11.4504 23.1096 11.2582 22.8402 11.1424Z" fill="#004E9F"/>
</svg>
