<svg width="55" height="55" viewBox="0 0 55 55" fill="none" xmlns="http://www.w3.org/2000/svg">
<g id="icon/boxes">
<path id="Vector" d="M6.80495 29.6083C6.12835 30.0148 5.5682 30.5892 5.17875 31.2757C4.7893 31.9623 4.58376 32.7378 4.58203 33.5271V40.9521C4.58376 41.7414 4.7893 42.5169 5.17875 43.2034C5.5682 43.89 6.12835 44.4643 6.80495 44.8708L13.6799 48.9958C14.3928 49.4241 15.2087 49.6504 16.0404 49.6504C16.872 49.6504 17.6879 49.4241 18.4008 48.9958L27.4987 43.5417V30.9375L16.0404 24.0625L6.80495 29.6083Z" stroke="white" stroke-width="2" stroke-linecap="round" stroke-linejoin="round"/>
<path id="Vector_2" d="M16.0422 37.8125L5.17969 31.2812" stroke="white" stroke-width="2" stroke-linecap="round" stroke-linejoin="round"/>
<path id="Vector_3" d="M16.043 37.8125L27.5013 30.9375" stroke="white" stroke-width="2" stroke-linecap="round" stroke-linejoin="round"/>
<path id="Vector_4" d="M16.043 37.8125V49.6604" stroke="white" stroke-width="2" stroke-linecap="round" stroke-linejoin="round"/>
<path id="Vector_5" d="M27.5 30.9375V43.5417L36.5979 48.9958C37.3108 49.4241 38.1267 49.6504 38.9583 49.6504C39.7899 49.6504 40.6059 49.4241 41.3188 48.9958L48.1938 44.8708C48.8703 44.4643 49.4305 43.89 49.8199 43.2034C50.2094 42.5169 50.4149 41.7414 50.4167 40.9521V33.5271C50.4149 32.7378 50.2094 31.9623 49.8199 31.2757C49.4305 30.5892 48.8703 30.0148 48.1938 29.6083L38.9583 24.0625L27.5 30.9375Z" stroke="white" stroke-width="2" stroke-linecap="round" stroke-linejoin="round"/>
<path id="Vector_6" d="M38.9583 37.8125L27.5 30.9375" stroke="white" stroke-width="2" stroke-linecap="round" stroke-linejoin="round"/>
<path id="Vector_7" d="M38.957 37.8125L49.8195 31.2812" stroke="white" stroke-width="2" stroke-linecap="round" stroke-linejoin="round"/>
<path id="Vector_8" d="M38.957 37.8125V49.6604" stroke="white" stroke-width="2" stroke-linecap="round" stroke-linejoin="round"/>
<path id="Vector_9" d="M18.2659 10.1292C17.5893 10.5357 17.0291 11.11 16.6397 11.7965C16.2502 12.4831 16.0447 13.2586 16.043 14.0479V24.0625L27.5013 30.9375L38.9596 24.0625V14.0479C38.9579 13.2586 38.7524 12.4831 38.3629 11.7965C37.9735 11.11 37.4133 10.5357 36.7367 10.1292L29.8617 6.00415C29.1489 5.57587 28.3329 5.34961 27.5013 5.34961C26.6697 5.34961 25.8537 5.57587 25.1409 6.00415L18.2659 10.1292Z" stroke="white" stroke-width="2" stroke-linecap="round" stroke-linejoin="round"/>
<path id="Vector_10" d="M27.4992 18.334L16.6367 11.8027" stroke="white" stroke-width="2" stroke-linecap="round" stroke-linejoin="round"/>
<path id="Vector_11" d="M27.5 18.334L38.3625 11.8027" stroke="white" stroke-width="2" stroke-linecap="round" stroke-linejoin="round"/>
<path id="Vector_12" d="M27.5 30.9382V18.334" stroke="white" stroke-width="2" stroke-linecap="round" stroke-linejoin="round"/>
</g>
</svg>
