<svg width="55" height="56" viewBox="0 0 55 56" fill="none" xmlns="http://www.w3.org/2000/svg">
<g id="icon/image">
<path id="Vector" d="M43.5417 7.375H11.4583C8.92703 7.375 6.875 9.42703 6.875 11.9583V44.0417C6.875 46.573 8.92703 48.625 11.4583 48.625H43.5417C46.073 48.625 48.125 46.573 48.125 44.0417V11.9583C48.125 9.42703 46.073 7.375 43.5417 7.375Z" stroke="white" stroke-width="3" stroke-linecap="round" stroke-linejoin="round"/>
<path id="Vector_2" d="M20.6263 25.7077C23.1576 25.7077 25.2096 23.6557 25.2096 21.1243C25.2096 18.593 23.1576 16.541 20.6263 16.541C18.095 16.541 16.043 18.593 16.043 21.1243C16.043 23.6557 18.095 25.7077 20.6263 25.7077Z" stroke="white" stroke-width="3" stroke-linecap="round" stroke-linejoin="round"/>
<path id="Vector_3" d="M48.125 34.875L41.0529 27.8029C40.1934 26.9436 39.0278 26.4609 37.8125 26.4609C36.5972 26.4609 35.4316 26.9436 34.5721 27.8029L13.75 48.625" stroke="white" stroke-width="3" stroke-linecap="round" stroke-linejoin="round"/>
</g>
</svg>
