<svg width="142" height="42" viewBox="0 0 142 42" fill="none" xmlns="http://www.w3.org/2000/svg">
<g filter="url(#filter0_d_4645_41520)">
<path d="M4.35776 18.9565L19.1861 32.0031C19.9163 32.6456 20.8557 33 21.8283 33H131C133.209 33 135 31.2091 135 29V19.3584C135 18.3334 134.607 17.3475 133.901 16.6042L120.268 2.24581C119.513 1.4504 118.464 1 117.367 1H7C4.79086 1 3 2.79086 3 5V15.9534C3 17.1031 3.49465 18.1971 4.35776 18.9565Z" fill="url(#paint0_linear_4645_41520)"/>
<path d="M4.35776 18.9565L19.1861 32.0031C19.9163 32.6456 20.8557 33 21.8283 33H131C133.209 33 135 31.2091 135 29V19.3584C135 18.3334 134.607 17.3475 133.901 16.6042L120.268 2.24581C119.513 1.4504 118.464 1 117.367 1H7C4.79086 1 3 2.79086 3 5V15.9534C3 17.1031 3.49465 18.1971 4.35776 18.9565Z" stroke="url(#paint1_linear_4645_41520)"/>
</g>
<defs>
<filter id="filter0_d_4645_41520" x="0.5" y="0.5" width="141" height="41" filterUnits="userSpaceOnUse" color-interpolation-filters="sRGB">
<feFlood flood-opacity="0" result="BackgroundImageFix"/>
<feColorMatrix in="SourceAlpha" type="matrix" values="0 0 0 0 0 0 0 0 0 0 0 0 0 0 0 0 0 0 127 0" result="hardAlpha"/>
<feOffset dx="2" dy="4"/>
<feGaussianBlur stdDeviation="2"/>
<feComposite in2="hardAlpha" operator="out"/>
<feColorMatrix type="matrix" values="0 0 0 0 0 0 0 0 0 0 0 0 0 0 0 0 0 0 0.25 0"/>
<feBlend mode="normal" in2="BackgroundImageFix" result="effect1_dropShadow_4645_41520"/>
<feBlend mode="normal" in="SourceGraphic" in2="effect1_dropShadow_4645_41520" result="shape"/>
</filter>
<linearGradient id="paint0_linear_4645_41520" x1="69" y1="1" x2="69" y2="33" gradientUnits="userSpaceOnUse">
<stop stop-color="#FFEF2B"/>
<stop offset="1" stop-color="#F9F7D6"/>
</linearGradient>
<linearGradient id="paint1_linear_4645_41520" x1="69" y1="33" x2="69" y2="1" gradientUnits="userSpaceOnUse">
<stop stop-color="#FFEF2B"/>
<stop offset="1" stop-color="#F9F7D6"/>
</linearGradient>
</defs>
</svg>
