<svg width="20" height="14" viewBox="0 0 20 14" fill="none" xmlns="http://www.w3.org/2000/svg">
<path id="Vector" d="M3.78337 8.21784C3.73194 8.17938 3.67018 8.15787 3.60638 8.15621C3.54259 8.15454 3.47982 8.17281 3.42652 8.20854C3.37322 8.24427 3.33195 8.29575 3.30824 8.35607C3.28453 8.4164 3.27953 8.48266 3.2939 8.54597C3.98729 11.6645 6.73074 14 10.0004 14C10.6947 14.0002 11.3851 13.8929 12.0477 13.6818C12.1089 13.6626 12.1628 13.6248 12.2021 13.5734C12.2415 13.522 12.2644 13.4596 12.2677 13.3945C12.2711 13.3294 12.2548 13.2649 12.2209 13.2096C12.1871 13.1543 12.1374 13.1109 12.0786 13.0852C10.6144 12.4282 9.18665 11.6898 7.80188 10.8735C6.416 10.0632 5.07451 9.1767 3.78337 8.21784ZM19.2476 10.3214C19.0839 10.0995 18.8917 9.86642 18.6734 9.62421C18.602 9.54418 18.5116 9.48421 18.4109 9.45006C18.3102 9.41591 18.2025 9.40874 18.0983 9.42924C17.994 9.44974 17.8967 9.49721 17.8157 9.5671C17.7347 9.63698 17.6728 9.72691 17.6358 9.82824C17.6358 9.8346 17.6315 9.84057 17.6292 9.84693C17.5902 9.95466 17.5811 10.0712 17.6028 10.1839C17.6245 10.2965 17.6762 10.4009 17.7522 10.4857C18.6405 11.48 18.7843 12.0173 18.7476 12.1307C18.6695 12.2194 18.0815 12.4047 16.476 11.9903C16.2461 11.9309 15.9945 11.8585 15.7213 11.7731C15.5453 11.718 15.3657 11.6584 15.1826 11.5945C15.4702 11.2587 15.7258 10.8958 15.9459 10.5107C15.9526 10.4992 15.9596 10.4877 15.9662 10.4757C16.5626 9.41802 16.8761 8.2196 16.8756 7C16.8758 6.74758 16.8628 6.49533 16.8366 6.24432C16.4627 2.73756 13.5396 1.10461e-06 10.0004 1.10461e-06C8.49871 -0.00085907 7.03835 0.500676 5.84399 1.42744C5.12009 1.98841 4.51176 2.68901 4.05369 3.48926C4.04744 3.5008 4.04041 3.51233 4.03377 3.52386C3.81607 3.91001 3.63516 4.31649 3.49352 4.73773C3.34794 4.6086 3.20744 4.4804 3.07202 4.35313C2.86146 4.15426 2.67474 3.97011 2.50872 3.79631C1.3536 2.59278 1.21609 1.98227 1.25242 1.86932C1.33055 1.78063 1.85948 1.63585 3.15171 1.92142C3.26219 1.94616 3.37722 1.93954 3.48426 1.9023C3.5913 1.86506 3.68625 1.79863 3.75876 1.71023L3.77283 1.69273C3.84022 1.61026 3.88568 1.51155 3.90483 1.40605C3.92397 1.30056 3.91617 1.19182 3.88217 1.09028C3.84817 0.988738 3.7891 0.897796 3.71065 0.826181C3.63219 0.754565 3.53698 0.704678 3.43414 0.681308C3.12743 0.610552 2.81738 0.555727 2.5052 0.517047C1.30516 0.376649 0.519584 0.617274 0.169962 1.23296C0.0433951 1.45489 -0.0780936 1.83313 0.0637084 2.37046C0.273481 3.1683 1.02116 4.13636 2.07941 5.15057C2.41653 5.47392 2.7849 5.80165 3.17788 6.13057C3.46383 6.3692 3.76384 6.61023 4.07245 6.84966C4.27844 7.00875 4.48874 7.16784 4.70333 7.32693C4.91792 7.48602 5.13537 7.6422 5.35569 7.79545C6.34831 8.49585 7.39717 9.16841 8.42573 9.77176C8.79918 9.99078 9.17211 10.2029 9.54452 10.4081C9.91693 10.6134 10.2863 10.8097 10.6528 10.9972C11.5083 11.4347 12.3462 11.8292 13.1474 12.1677C13.4909 12.313 13.827 12.4477 14.1556 12.5718C14.6201 12.7476 15.0685 12.9023 15.4959 13.0327L15.5389 13.0459C16.544 13.3505 17.3913 13.5108 18.0577 13.5231H18.1257C18.971 13.5231 19.5437 13.2694 19.8281 12.7674C20.1832 12.1462 19.9875 11.3229 19.2476 10.3214Z" fill="#FFB700"/>
</svg>
