<svg width="24" height="22" viewBox="0 0 24 22" fill="none" xmlns="http://www.w3.org/2000/svg">
<g id="Group 622">
<g id="Mask group">
<mask id="mask0_1_5736" style="mask-type:alpha" maskUnits="userSpaceOnUse" x="4" y="0" width="20" height="14">
<path id="Vector" d="M7.59961 8.40625L7.63379 8.41797L7.63477 8.41895C8.93269 9.38282 10.2816 10.2733 11.6748 11.0879V11.0889C12.8934 11.8072 14.1453 12.4654 15.4258 13.0615L15.9766 13.3135L15.9785 13.3145L16.0078 13.3398L16.0186 13.3818L16.0039 13.4219L15.9727 13.4434H15.9717C15.3336 13.6467 14.6685 13.7502 14 13.75L13.707 13.7432C10.7875 13.6128 8.3483 11.5473 7.60645 8.77148L7.53809 8.49219V8.49023L7.54102 8.44727L7.56543 8.41602L7.59961 8.40625ZM14 0.25C17.2998 0.25 20.0503 2.72393 20.5469 5.95605L20.5879 6.27051C20.6131 6.51277 20.6261 6.75637 20.626 7L20.6113 7.44043C20.5552 8.31756 20.3309 9.17484 19.9512 9.96387L19.748 10.3525V10.3545L19.7295 10.3857L19.7285 10.3867C19.5163 10.7579 19.2703 11.108 18.9932 11.4316L18.7549 11.71L19.1006 11.8311L19.6465 12.0117C19.7847 12.0549 19.918 12.095 20.0459 12.1318L20.4131 12.2324C21.2303 12.4434 21.8022 12.5051 22.1885 12.499C22.3815 12.496 22.5327 12.4757 22.6475 12.4463C22.7046 12.4316 22.7562 12.4139 22.8008 12.3926C22.8411 12.3733 22.8938 12.3432 22.9355 12.2959L22.9697 12.2568L22.9854 12.208C23.0043 12.1496 23.0043 12.0916 23.001 12.0488C22.9973 12.0021 22.9877 11.9521 22.9736 11.9004C22.9455 11.7967 22.8955 11.6702 22.8184 11.5225C22.7025 11.3005 22.521 11.0201 22.2461 10.6797L21.9385 10.3193V10.3184L21.8809 10.2344L21.8486 10.1367C21.8355 10.0688 21.8411 9.99849 21.8643 9.93359C21.8662 9.92895 21.8684 9.92223 21.8711 9.91406C21.8823 9.88339 21.8969 9.8545 21.915 9.82812L21.9795 9.75684C22.0036 9.73601 22.0295 9.71782 22.0576 9.7041L22.1465 9.6748C22.1772 9.66877 22.2083 9.66688 22.2393 9.66895L22.3311 9.68652C22.3607 9.69662 22.3888 9.71109 22.415 9.72852L22.4863 9.79102L22.4873 9.79199C22.5943 9.91071 22.6949 10.0265 22.7881 10.1396L23.0469 10.4697C23.7288 11.3928 23.8705 12.0705 23.6582 12.5498L23.6113 12.6436L23.6104 12.6445C23.3892 13.0345 22.9272 13.2734 22.126 13.2734H22.0625C21.4283 13.2617 20.6054 13.108 19.6113 12.8066H19.6123L19.5693 12.7939C19.3586 12.7296 19.1419 12.6591 18.9209 12.583L18.2441 12.3379C18.0814 12.2764 17.9166 12.2123 17.75 12.1455L17.2451 11.9375L16.6416 11.6748C16.2356 11.4934 15.8214 11.299 15.4014 11.0928L14.7666 10.7744C14.5845 10.6812 14.4015 10.5859 14.2178 10.4883L13.665 10.1895C13.4799 10.0874 13.2948 9.98339 13.1094 9.87793L12.5518 9.55566C11.7848 9.10574 11.0064 8.61726 10.249 8.10742L9.5 7.59082L9.49805 7.58984L8.85254 7.12598C8.63923 6.96784 8.43025 6.80943 8.22559 6.65137H8.22461C8.07178 6.53279 7.92124 6.41371 7.77344 6.29492L7.33789 5.93848C7.14349 5.77576 6.95542 5.61351 6.77441 5.45215L6.25293 4.96973H6.25195C5.26275 4.02163 4.58564 3.14808 4.34766 2.44531L4.30566 2.30664L4.26953 2.13867C4.22615 1.87083 4.26079 1.66307 4.31543 1.51172L4.38672 1.35645H4.3877C4.65829 0.880067 5.29886 0.62739 6.47461 0.764648V0.765625C6.62618 0.784409 6.77734 0.806423 6.92773 0.833008L7.37793 0.924805H7.37891C7.40911 0.931677 7.43833 0.942605 7.46582 0.957031L7.54199 1.01074C7.56535 1.03207 7.5862 1.05635 7.60352 1.08301L7.64551 1.16992C7.66601 1.23134 7.67076 1.29738 7.65918 1.36133C7.65338 1.39327 7.64321 1.42413 7.62988 1.45312L7.5791 1.53418L7.57812 1.53613L7.56543 1.55176C7.54361 1.57835 7.51875 1.60185 7.49121 1.62109L7.40234 1.66602C7.37071 1.67702 7.3377 1.68367 7.30469 1.68555L7.20605 1.67773L6.74414 1.58691C6.31574 1.51502 5.98522 1.49543 5.7373 1.50488C5.5723 1.51118 5.4392 1.531 5.33594 1.55859C5.28445 1.57235 5.23656 1.58887 5.19434 1.60938C5.15562 1.62819 5.10521 1.65783 5.06445 1.7041L5.03027 1.74316L5.01465 1.79297C4.99559 1.85229 4.99529 1.91183 4.99902 1.95605C5.0032 2.00515 5.01423 2.05907 5.03027 2.11621C5.06248 2.23081 5.12108 2.37322 5.21484 2.54395C5.40259 2.88576 5.74037 3.35734 6.32812 3.96973V3.96875C6.41292 4.05752 6.50243 4.14908 6.59766 4.24316L6.90039 4.53516C7.03757 4.66408 7.17994 4.79423 7.32715 4.9248L7.61035 5.17578L7.73047 4.81738C7.8671 4.41105 8.04201 4.01886 8.25195 3.64648L8.25098 3.64551C8.25462 3.6393 8.26381 3.62534 8.27051 3.61328C8.65712 2.93786 9.15451 2.33607 9.74023 1.83398L9.99707 1.625C11.0759 0.787889 12.3796 0.311532 13.7295 0.255859L14 0.25Z" stroke="#FFB700" stroke-width="0.5"/>
</mask>
<g mask="url(#mask0_1_5736)">
<rect id="Rectangle 92" x="13" y="-9" width="17" height="32" fill="#FFB700"/>
</g>
</g>
<g id="Mask group_2">
<mask id="mask1_1_5736" style="mask-type:alpha" maskUnits="userSpaceOnUse" x="4" y="0" width="20" height="14">
<path id="Vector_2" d="M7.78337 8.21784C7.73194 8.17938 7.67018 8.15787 7.60638 8.15621C7.54259 8.15454 7.47982 8.17281 7.42652 8.20854C7.37322 8.24427 7.33195 8.29575 7.30824 8.35607C7.28453 8.4164 7.27953 8.48266 7.2939 8.54597C7.98729 11.6645 10.7307 14 14.0004 14C14.6947 14.0002 15.3851 13.8929 16.0477 13.6818C16.1089 13.6626 16.1628 13.6248 16.2021 13.5734C16.2415 13.522 16.2644 13.4596 16.2677 13.3945C16.2711 13.3294 16.2548 13.2649 16.2209 13.2096C16.1871 13.1543 16.1374 13.1109 16.0786 13.0852C14.6144 12.4282 13.1867 11.6898 11.8019 10.8735C10.416 10.0632 9.07451 9.1767 7.78337 8.21784ZM23.2476 10.3214C23.0839 10.0995 22.8917 9.86642 22.6734 9.62421C22.602 9.54418 22.5116 9.48421 22.4109 9.45006C22.3102 9.41591 22.2025 9.40874 22.0983 9.42924C21.994 9.44974 21.8967 9.49721 21.8157 9.5671C21.7347 9.63698 21.6728 9.72691 21.6358 9.82824C21.6358 9.8346 21.6315 9.84057 21.6292 9.84693C21.5902 9.95466 21.5811 10.0712 21.6028 10.1839C21.6245 10.2965 21.6762 10.4009 21.7522 10.4857C22.6405 11.48 22.7843 12.0173 22.7476 12.1307C22.6695 12.2194 22.0815 12.4047 20.476 11.9903C20.2461 11.9309 19.9945 11.8585 19.7213 11.7731C19.5453 11.718 19.3657 11.6584 19.1826 11.5945C19.4702 11.2587 19.7258 10.8958 19.9459 10.5107C19.9526 10.4992 19.9596 10.4877 19.9662 10.4757C20.5626 9.41802 20.8761 8.2196 20.8756 7C20.8758 6.74758 20.8628 6.49533 20.8366 6.24432C20.4627 2.73756 17.5396 1.10461e-06 14.0004 1.10461e-06C12.4987 -0.00085907 11.0384 0.500676 9.84399 1.42744C9.12009 1.98841 8.51176 2.68901 8.05369 3.48926C8.04744 3.5008 8.04041 3.51233 8.03377 3.52386C7.81607 3.91001 7.63516 4.31649 7.49352 4.73773C7.34794 4.6086 7.20744 4.4804 7.07202 4.35313C6.86146 4.15426 6.67474 3.97011 6.50872 3.79631C5.3536 2.59278 5.21609 1.98227 5.25242 1.86932C5.33055 1.78063 5.85948 1.63585 7.15171 1.92142C7.26219 1.94616 7.37722 1.93954 7.48426 1.9023C7.5913 1.86506 7.68625 1.79863 7.75876 1.71023L7.77283 1.69273C7.84022 1.61026 7.88568 1.51155 7.90483 1.40605C7.92397 1.30056 7.91617 1.19182 7.88217 1.09028C7.84817 0.988738 7.7891 0.897796 7.71065 0.826181C7.63219 0.754565 7.53698 0.704678 7.43414 0.681308C7.12743 0.610552 6.81738 0.555727 6.5052 0.517047C5.30516 0.376649 4.51958 0.617274 4.16996 1.23296C4.0434 1.45489 3.92191 1.83313 4.06371 2.37046C4.27348 3.1683 5.02116 4.13636 6.07941 5.15057C6.41653 5.47392 6.7849 5.80165 7.17788 6.13057C7.46383 6.3692 7.76384 6.61023 8.07245 6.84966C8.27844 7.00875 8.48874 7.16784 8.70333 7.32693C8.91792 7.48602 9.13537 7.6422 9.35569 7.79545C10.3483 8.49585 11.3972 9.16841 12.4257 9.77176C12.7992 9.99078 13.1721 10.2029 13.5445 10.4081C13.9169 10.6134 14.2863 10.8097 14.6528 10.9972C15.5083 11.4347 16.3462 11.8292 17.1474 12.1677C17.4909 12.313 17.827 12.4477 18.1556 12.5718C18.6201 12.7476 19.0685 12.9023 19.4959 13.0327L19.5389 13.0459C20.544 13.3505 21.3913 13.5108 22.0577 13.5231H22.1257C22.971 13.5231 23.5437 13.2694 23.8281 12.7674C24.1832 12.1462 23.9875 11.3229 23.2476 10.3214Z" fill="#FFB700"/>
</mask>
<g mask="url(#mask1_1_5736)">
<rect id="Rectangle 93" x="-2" y="-2" width="16" height="24" fill="#FFB700"/>
</g>
</g>
</g>
</svg>
