<svg width="24" height="25" viewBox="0 0 24 25" fill="none" xmlns="http://www.w3.org/2000/svg">
<path fill-rule="evenodd" clip-rule="evenodd" d="M2.25 12.5898C2.25 7.20688 6.61704 2.83984 12 2.83984C17.383 2.83984 21.75 7.20688 21.75 12.5898C21.75 17.9728 17.383 22.3398 12 22.3398C6.61704 22.3398 2.25 17.9728 2.25 12.5898ZM12 4.33984C7.44546 4.33984 3.75 8.03531 3.75 12.5898C3.75 17.1444 7.44546 20.8398 12 20.8398C16.5545 20.8398 20.25 17.1444 20.25 12.5898C20.25 8.03531 16.5545 4.33984 12 4.33984Z" fill="black"/>
<path fill-rule="evenodd" clip-rule="evenodd" d="M12 8.08984C12.4142 8.08984 12.75 8.42563 12.75 8.83984V11.8398H15.75C16.1642 11.8398 16.5 12.1756 16.5 12.5898C16.5 13.0041 16.1642 13.3398 15.75 13.3398H12.75V16.3398C12.75 16.7541 12.4142 17.0898 12 17.0898C11.5858 17.0898 11.25 16.7541 11.25 16.3398V13.3398H8.25C7.83579 13.3398 7.5 13.0041 7.5 12.5898C7.5 12.1756 7.83579 11.8398 8.25 11.8398H11.25V8.83984C11.25 8.42563 11.5858 8.08984 12 8.08984Z" fill="black"/>
</svg>
