<svg width="25" height="25" viewBox="0 0 25 25" fill="none" xmlns="http://www.w3.org/2000/svg">
<path d="M10.6297 9.50028V16.2432C10.6375 16.7363 10.8388 17.2066 11.1903 17.5525C11.5417 17.8984 12.0151 18.0923 12.5082 18.0923C13.0013 18.0923 13.4747 17.8984 13.8261 17.5525C14.1776 17.2066 14.3789 16.7363 14.3867 16.2432L14.3928 7.40496C14.3979 6.98353 14.3193 6.56526 14.1616 6.17442C14.0039 5.78358 13.7701 5.42794 13.4739 5.12812C13.1777 4.82829 12.8249 4.59024 12.436 4.42777C12.0471 4.2653 11.6298 4.18164 11.2084 4.18164C10.7869 4.18164 10.3696 4.2653 9.98071 4.42777C9.59182 4.59024 9.23904 4.82829 8.94283 5.12812C8.64661 5.42794 8.41286 5.78358 8.25512 6.17442C8.09738 6.56526 8.01879 6.98353 8.02391 7.40496V16.3028C8.01532 16.8961 8.12477 17.4852 8.34588 18.0359C8.567 18.5865 8.89537 19.0877 9.31191 19.5103C9.72845 19.9329 10.2248 20.2685 10.7722 20.4976C11.3196 20.7266 11.9071 20.8446 12.5005 20.8446C13.0939 20.8446 13.6813 20.7266 14.2287 20.4976C14.7761 20.2685 15.2725 19.9329 15.689 19.5103C16.1056 19.0877 16.4339 18.5865 16.6551 18.0359C16.8762 17.4852 16.9856 16.8961 16.977 16.3028V7.98809" stroke="#BFBFBF" stroke-width="2" stroke-miterlimit="10" stroke-linecap="round"/>
</svg>
