<svg width="24" height="25" viewBox="0 0 24 25" fill="none" xmlns="http://www.w3.org/2000/svg">
<path d="M21.9999 11.4993V12.4993C21.9898 14.5177 21.3691 16.4857 20.2196 18.1447C19.0701 19.8037 17.4454 21.076 15.5592 21.7944C13.6731 22.5128 11.6137 22.6436 9.65175 22.1696C7.68984 21.6956 5.91727 20.6391 4.56707 19.1389C3.21686 17.6386 2.35223 15.765 2.08684 13.7641C1.82144 11.7633 2.1677 9.72902 3.08011 7.92868C3.99251 6.12833 5.42835 4.64622 7.19885 3.67718C8.96935 2.70814 10.9917 2.29753 12.9999 2.49934" stroke="#004E9F" stroke-width="2" stroke-linecap="round" stroke-linejoin="round"/>
<path d="M8 14.5C8 14.5 9.5 16.5 12 16.5C14.5 16.5 16 14.5 16 14.5" stroke="#004E9F" stroke-width="2" stroke-linecap="round" stroke-linejoin="round"/>
<path d="M9 9.5H9.01" stroke="#004E9F" stroke-width="2" stroke-linecap="round" stroke-linejoin="round"/>
<path d="M15 9.5H15.01" stroke="#004E9F" stroke-width="2" stroke-linecap="round" stroke-linejoin="round"/>
<path d="M16 5.5H22" stroke="#004E9F" stroke-width="2" stroke-linecap="round" stroke-linejoin="round"/>
<path d="M19 2.5V8.5" stroke="#004E9F" stroke-width="2" stroke-linecap="round" stroke-linejoin="round"/>
</svg>
