<svg width="24" height="25" viewBox="0 0 24 25" fill="none" xmlns="http://www.w3.org/2000/svg">
<path d="M20.2047 15.6766C20.1578 15.5078 20.2609 15.2734 20.3594 15.1047C20.3895 15.0545 20.4223 15.0059 20.4578 14.9594C21.2998 13.7082 21.7502 12.2347 21.7516 10.7266C21.7656 6.40469 18.1187 2.89844 13.6094 2.89844C9.67656 2.89844 6.39531 5.575 5.62656 9.12812C5.51156 9.65475 5.45341 10.1922 5.45313 10.7313C5.45312 15.0578 8.95937 18.6578 13.4687 18.6578C14.1859 18.6578 15.1516 18.4422 15.6812 18.2969C16.2109 18.1516 16.7359 17.9594 16.8719 17.9078C17.0112 17.8553 17.1589 17.8283 17.3078 17.8281C17.4703 17.8275 17.6313 17.8594 17.7812 17.9219L20.4391 18.8641C20.4973 18.8887 20.5589 18.9045 20.6219 18.9109C20.7213 18.9109 20.8167 18.8714 20.887 18.8011C20.9574 18.7308 20.9969 18.6354 20.9969 18.5359C20.9936 18.493 20.9857 18.4506 20.9734 18.4094L20.2047 15.6766Z" stroke="black" stroke-width="2" stroke-miterlimit="10" stroke-linecap="round"/>
<path d="M3.11534 11.5234C2.50054 12.6279 2.20314 13.8809 2.256 15.1439C2.30886 16.4068 2.70993 17.6306 3.41487 18.6798C3.52315 18.8434 3.58409 18.97 3.56534 19.0548C3.54659 19.1397 3.00612 21.955 3.00612 21.955C2.99312 22.0209 2.99805 22.089 3.0204 22.1524C3.04274 22.2157 3.08169 22.2719 3.13315 22.315C3.20183 22.3697 3.28722 22.3992 3.37503 22.3984C3.42195 22.3986 3.46839 22.389 3.51143 22.3703L6.14628 21.3391C6.32762 21.2676 6.52992 21.2709 6.70878 21.3484C7.59659 21.6944 8.57815 21.9109 9.56018 21.9109C10.878 21.9123 12.1726 21.5648 13.3125 20.9036" stroke="black" stroke-width="2" stroke-miterlimit="10" stroke-linecap="round"/>
</svg>
