<svg width="70" height="71" viewBox="0 0 70 71" fill="none" xmlns="http://www.w3.org/2000/svg">
<path d="M61.25 35.8809C61.25 50.373 49.4922 62.1309 35 62.1309C20.5078 62.1309 8.75 50.373 8.75 35.8809C8.75 21.3887 20.5078 9.63086 35 9.63086C49.4922 9.63086 61.25 21.3887 61.25 35.8809Z" fill="url(#paint0_linear_1_12457)"/>
<path fill-rule="evenodd" clip-rule="evenodd" d="M42.0155 20.9239C41.1613 20.0696 39.7762 20.0696 38.922 20.9239L25.797 34.0489C24.9427 34.9032 24.9427 36.2882 25.797 37.1425L38.922 50.2675C39.7762 51.1218 41.1613 51.1218 42.0155 50.2675C42.8698 49.4132 42.8698 48.0282 42.0155 47.1739L30.4373 35.5957L42.0155 24.0175C42.8698 23.1632 42.8698 21.7782 42.0155 20.9239Z" fill="black"/>
<defs>
<linearGradient id="paint0_linear_1_12457" x1="35" y1="9.63086" x2="35" y2="62.1309" gradientUnits="userSpaceOnUse">
<stop stop-color="#FFEF2B"/>
<stop offset="1" stop-color="#F9F7D6"/>
</linearGradient>
</defs>
</svg>
