<svg width="70" height="71" viewBox="0 0 70 71" fill="none" xmlns="http://www.w3.org/2000/svg">
<path d="M8.75 35.5C8.75 49.9922 20.5078 61.75 35 61.75C49.4922 61.75 61.25 49.9922 61.25 35.5C61.25 21.0078 49.4922 9.25 35 9.25C20.5078 9.25 8.75 21.0078 8.75 35.5Z" fill="white" fill-opacity="0.38"/>
<path fill-rule="evenodd" clip-rule="evenodd" d="M27.9845 20.8282C28.8387 19.9739 30.2238 19.9739 31.078 20.8282L44.203 33.9532C45.0573 34.8075 45.0573 36.1925 44.203 37.0468L31.078 50.1718C30.2238 51.0261 28.8387 51.0261 27.9845 50.1718C27.1302 49.3175 27.1302 47.9325 27.9845 47.0782L39.5627 35.5L27.9845 23.9218C27.1302 23.0675 27.1302 21.6825 27.9845 20.8282Z" fill="black"/>
</svg>
