<svg width="16" height="16" viewBox="0 0 16 16" fill="none" xmlns="http://www.w3.org/2000/svg">
<path d="M13.6134 3.05298C13.2789 2.71736 12.8815 2.45107 12.4439 2.26937C12.0064 2.08767 11.5372 1.99414 11.0634 1.99414C10.5896 1.99414 10.1204 2.08767 9.68284 2.26937C9.24526 2.45107 8.84784 2.71736 8.51339 3.05298L8.00006 3.57298L7.48672 3.05298C7.15227 2.71736 6.75486 2.45107 6.31727 2.26937C5.87968 2.08767 5.41053 1.99414 4.93672 1.99414C4.46291 1.99414 3.99376 2.08767 3.55618 2.26937C3.11859 2.45107 2.72118 2.71736 2.38672 3.05298C0.973391 4.46631 0.886724 6.85298 2.66672 8.66631L8.00006 13.9996L13.3334 8.66631C15.1134 6.85298 15.0267 4.46631 13.6134 3.05298Z" stroke="#334155" stroke-width="2" stroke-linecap="round" stroke-linejoin="round"/>
<path d="M7.9985 3.57422L5.91183 5.66755C5.64803 5.93351 5.5 6.29295 5.5 6.66755C5.5 7.04216 5.64803 7.40159 5.91183 7.66755C6.1778 7.93136 6.53723 8.07939 6.91183 8.07939C7.28644 8.07939 7.64587 7.93136 7.91183 7.66755L9.4185 6.19422C9.79294 5.82374 10.2984 5.61594 10.8252 5.61594C11.3519 5.61594 11.8574 5.82374 12.2318 6.19422L13.8318 7.79422" stroke="#334155" stroke-width="2" stroke-linecap="round" stroke-linejoin="round"/>
<path d="M11.9974 9.99935L10.6641 8.66602" stroke="#334155" stroke-width="2" stroke-linecap="round" stroke-linejoin="round"/>
<path d="M9.9974 11.9993L8.66406 10.666" stroke="#334155" stroke-width="2" stroke-linecap="round" stroke-linejoin="round"/>
</svg>
