<svg width="26" height="24" viewBox="0 0 26 24" fill="none" xmlns="http://www.w3.org/2000/svg">
<path id="Vector" d="M21.7692 1H4.23077C3.37466 1.00242 2.55432 1.34122 1.94896 1.94237C1.3436 2.54353 1.00244 3.35817 1 4.20833V15.2083C1.00244 16.0585 1.3436 16.8731 1.94896 17.4743C2.55432 18.0755 3.37466 18.4142 4.23077 18.4167H6.53846V23L11.9454 18.5232C12.0284 18.4544 12.1332 18.4166 12.2413 18.4167H21.7692C22.6253 18.4142 23.4457 18.0755 24.051 17.4743C24.6564 16.8731 24.9976 16.0585 25 15.2083V4.20833C24.9976 3.35817 24.6564 2.54353 24.051 1.94237C23.4457 1.34122 22.6253 1.00242 21.7692 1Z" stroke="black" stroke-width="2" stroke-linejoin="round"/>
</svg>
