<svg width="24" height="24" viewBox="0 0 24 24" fill="none" xmlns="http://www.w3.org/2000/svg">
<g id="icon/thumbs-down">
<path id="Vector" d="M17 14V2" stroke="black" stroke-width="2" stroke-linecap="round" stroke-linejoin="round"/>
<path id="Vector_2" d="M9.00187 18.12L10.0019 14H4.17188C3.86139 14 3.55516 13.9277 3.27745 13.7889C2.99974 13.65 2.75817 13.4484 2.57188 13.2C2.38558 12.9516 2.25968 12.6633 2.20414 12.3578C2.14859 12.0523 2.16494 11.7381 2.25188 11.44L4.58188 3.44C4.70304 3.02457 4.95568 2.65964 5.30188 2.4C5.64807 2.14036 6.06913 2 6.50187 2H20.0019C20.5323 2 21.041 2.21071 21.4161 2.58579C21.7912 2.96086 22.0019 3.46957 22.0019 4V12C22.0019 12.5304 21.7912 13.0391 21.4161 13.4142C21.041 13.7893 20.5323 14 20.0019 14H17.2419C16.8698 14.0002 16.5051 14.1042 16.1889 14.3003C15.8727 14.4964 15.6175 14.7768 15.4519 15.11L12.0019 22C11.5303 21.9942 11.0661 21.8818 10.6441 21.6714C10.222 21.461 9.85295 21.1579 9.56447 20.7848C9.27599 20.4117 9.07556 19.9782 8.97814 19.5168C8.88072 19.0554 8.88883 18.5779 9.00187 18.12Z" stroke="black" stroke-width="2" stroke-linecap="round" stroke-linejoin="round"/>
</g>
</svg>
