<svg width="23" height="22" viewBox="0 0 23 22" fill="none" xmlns="http://www.w3.org/2000/svg">
<path d="M16.8394 11.0018C16.8394 11.4907 17.2394 11.8907 17.7283 11.8907H19.5061C19.995 11.8907 20.395 11.4907 20.395 11.0018C20.395 10.5129 19.995 10.1129 19.5061 10.1129H17.7283C17.2394 10.1129 16.8394 10.5129 16.8394 11.0018Z" fill="black"/>
<path d="M15.5861 15.2862C15.2927 15.6773 15.3727 16.2196 15.7639 16.504C16.235 16.8507 16.7327 17.224 17.2039 17.5796C17.595 17.8729 18.1461 17.7929 18.4305 17.4018C18.4305 17.3929 18.4394 17.3929 18.4394 17.384C18.7327 16.9929 18.6527 16.4418 18.2616 16.1573C17.7905 15.8018 17.2927 15.4284 16.8305 15.0818C16.4394 14.7884 15.8883 14.8773 15.595 15.2684C15.595 15.2773 15.5861 15.2862 15.5861 15.2862Z" fill="black"/>
<path d="M18.4483 4.61066C18.4483 4.60178 18.4394 4.60178 18.4394 4.59289C18.1461 4.20178 17.595 4.12178 17.2127 4.41511C16.7416 4.77067 16.235 5.144 15.7727 5.49955C15.3816 5.79289 15.3105 6.344 15.6039 6.72622C15.6039 6.73511 15.6127 6.73511 15.6127 6.744C15.9061 7.13511 16.4483 7.21511 16.8394 6.92178C17.3105 6.57511 17.8083 6.19289 18.2794 5.83733C18.6616 5.55289 18.7327 5.00178 18.4483 4.61066Z" fill="black"/>
<path d="M7.95052 8.33511H4.39497C3.41719 8.33511 2.61719 9.13511 2.61719 10.1129V11.8907C2.61719 12.8684 3.41719 13.6684 4.39497 13.6684H5.28385V16.3351C5.28385 16.824 5.68385 17.224 6.17274 17.224C6.66163 17.224 7.06163 16.824 7.06163 16.3351V13.6684H7.95052L12.395 16.3351V5.66844L7.95052 8.33511Z" fill="black"/>
<path d="M14.6172 11.0018C14.6172 9.81955 14.1016 8.75289 13.2839 8.024V13.9707C14.1016 13.2507 14.6172 12.184 14.6172 11.0018Z" fill="black"/>
</svg>
