<svg width="25" height="24" viewBox="0 0 25 24" fill="none" xmlns="http://www.w3.org/2000/svg">
<g id="attach">
<path id="Vector" d="M10.6297 9.00028V15.7432C10.6375 16.2363 10.8388 16.7066 11.1903 17.0525C11.5417 17.3984 12.0151 17.5923 12.5082 17.5923C13.0013 17.5923 13.4747 17.3984 13.8261 17.0525C14.1776 16.7066 14.3789 16.2363 14.3867 15.7432L14.3928 6.90496C14.3979 6.48353 14.3193 6.06526 14.1616 5.67442C14.0039 5.28358 13.7701 4.92794 13.4739 4.62812C13.1777 4.32829 12.8249 4.09024 12.436 3.92777C12.0471 3.7653 11.6298 3.68164 11.2084 3.68164C10.7869 3.68164 10.3696 3.7653 9.98071 3.92777C9.59182 4.09024 9.23904 4.32829 8.94283 4.62812C8.64661 4.92794 8.41286 5.28358 8.25512 5.67442C8.09738 6.06526 8.01879 6.48353 8.02391 6.90496V15.8028C8.01532 16.3961 8.12477 16.9852 8.34588 17.5359C8.567 18.0865 8.89537 18.5877 9.31191 19.0103C9.72845 19.4329 10.2248 19.7685 10.7722 19.9976C11.3196 20.2266 11.9071 20.3446 12.5005 20.3446C13.0939 20.3446 13.6813 20.2266 14.2287 19.9976C14.7761 19.7685 15.2725 19.4329 15.689 19.0103C16.1056 18.5877 16.4339 18.0865 16.6551 17.5359C16.8762 16.9852 16.9856 16.3961 16.977 15.8028V7.48809" stroke="#BFBFBF" stroke-width="2" stroke-miterlimit="10" stroke-linecap="round"/>
</g>
</svg>
