<svg width="30" height="31" viewBox="0 0 30 31" fill="none" xmlns="http://www.w3.org/2000/svg">
<g id="Close">
<rect width="30" height="30.4663" rx="15" fill="#FFEF2B"/>
<path id="SF Symbol / xmark" d="M10.0474 19.4792C9.73633 19.7951 9.72998 20.3559 10.0537 20.6847C10.3838 21.0134 10.936 21.007 11.2407 20.6976L14.9985 16.8814L18.75 20.6911C19.0674 21.0134 19.6133 21.0134 19.937 20.6847C20.2607 20.3495 20.2607 19.8015 19.9434 19.4792L16.1919 15.6695L19.9434 11.8532C20.2607 11.5309 20.2671 10.9765 19.937 10.6478C19.6133 10.319 19.0674 10.319 18.75 10.6413L14.9985 14.4511L11.2407 10.6413C10.936 10.3255 10.3774 10.3126 10.0537 10.6478C9.72998 10.9765 9.73633 11.5438 10.0474 11.8532L13.7988 15.6695L10.0474 19.4792Z" fill="black"/>
</g>
</svg>
