<svg width="25" height="25" viewBox="0 0 25 25" fill="none" xmlns="http://www.w3.org/2000/svg">
  <path d="M4 6C4 4.89543 4.89543 4 6 4H8.27924C8.70967 4 9.09181 4.27543 9.22792 4.68377L10.7257 9.17721C10.8831 9.64932 10.6694 10.1653 10.2243 10.3877L7.96701 11.5175C9.06925 13.9142 11.0858 15.9308 13.4825 17.033L14.6123 14.7757C14.8347 14.3306 15.3507 14.1169 15.8228 14.2743L20.3162 15.7721C20.7246 15.9082 21 16.2903 21 16.7208V19C21 20.1046 20.1046 21 19 21H6C4.89543 21 4 20.1046 4 19V6Z" stroke="currentColor" stroke-width="2" stroke-linecap="round" stroke-linejoin="round"/>
</svg> 