<svg width="25" height="25" viewBox="0 0 25 25" fill="none" xmlns="http://www.w3.org/2000/svg">
<g id="planet">
<path id="Vector" d="M4.72905 13.9951C4.66476 13.9479 4.58755 13.9215 4.50781 13.9195C4.42808 13.9174 4.34962 13.9398 4.283 13.9837C4.21638 14.0276 4.16478 14.0908 4.13515 14.1648C4.10551 14.2389 4.09926 14.3202 4.11723 14.398C4.98393 18.2266 8.41313 21.0938 12.5 21.0938C13.3679 21.094 14.2308 20.9623 15.0591 20.7031C15.1356 20.6796 15.2029 20.6331 15.2521 20.57C15.3013 20.5069 15.3299 20.4303 15.3341 20.3504C15.3383 20.2705 15.3179 20.1913 15.2756 20.1234C15.2334 20.0555 15.1712 20.0022 15.0977 19.9707C13.2675 19.164 11.4829 18.2576 9.752 17.2554C8.01971 16.2607 6.34291 15.1723 4.72905 13.9951ZM24.0586 16.5776C23.854 16.3052 23.6138 16.019 23.3409 15.7217C23.2517 15.6234 23.1387 15.5498 23.0128 15.5079C22.8869 15.466 22.7523 15.4572 22.622 15.4823C22.4917 15.5075 22.3701 15.5658 22.2689 15.6516C22.1676 15.7374 22.0902 15.8478 22.044 15.9722C22.044 15.98 22.0386 15.9873 22.0357 15.9951C21.987 16.1274 21.9756 16.2705 22.0027 16.4088C22.0299 16.547 22.0945 16.6752 22.1895 16.7793C23.2998 18 23.4795 18.6597 23.4336 18.7988C23.336 18.9077 22.6011 19.1353 20.5943 18.6265C20.3068 18.5535 19.9924 18.4647 19.6509 18.3599C19.4309 18.2922 19.2064 18.2191 18.9776 18.1406C19.3371 17.7283 19.6565 17.2828 19.9317 16.8101C19.94 16.7959 19.9488 16.7817 19.9571 16.7671C20.7025 15.4686 21.0944 13.9973 21.0938 12.5C21.094 12.1901 21.0777 11.8804 21.045 11.5723C20.5777 7.26709 16.9239 3.90625 12.5 3.90625C10.623 3.9052 8.79762 4.52092 7.30473 5.65869C6.39989 6.34738 5.63949 7.20749 5.06694 8.18994C5.05912 8.2041 5.05034 8.21826 5.04204 8.23242C4.76992 8.70649 4.54379 9.20551 4.36674 9.72266C4.18478 9.56413 4.00916 9.40674 3.83989 9.25049C3.5767 9.00635 3.3433 8.78027 3.13579 8.5669C1.69194 7.08936 1.52006 6.33984 1.56547 6.20117C1.66313 6.09229 2.32426 5.91455 3.9395 6.26514C4.07759 6.29551 4.22137 6.28739 4.35517 6.24167C4.48897 6.19595 4.60765 6.11438 4.69829 6.00586L4.71586 5.98438C4.80011 5.88314 4.85692 5.76195 4.88086 5.63243C4.90479 5.50292 4.89504 5.36943 4.85254 5.24476C4.81004 5.1201 4.73621 5.00846 4.63815 4.92053C4.54008 4.83261 4.42107 4.77137 4.29252 4.74268C3.90915 4.65581 3.5216 4.5885 3.13139 4.54102C1.63139 4.36865 0.649457 4.66406 0.212445 5.41992C0.054242 5.69238 -0.0976135 6.15674 0.0796326 6.81641C0.34184 7.7959 1.27641 8.98438 2.59916 10.2295C3.02055 10.6265 3.481 11.0288 3.97221 11.4326C4.32963 11.7256 4.70463 12.0215 5.09037 12.3154C5.34786 12.5107 5.61072 12.7061 5.87895 12.9014C6.14718 13.0967 6.41899 13.2884 6.69438 13.4766C7.9351 14.3364 9.24614 15.1621 10.5318 15.9028C10.9986 16.1717 11.4647 16.4321 11.9302 16.6841C12.3957 16.936 12.8575 17.1771 13.3155 17.4072C14.3848 17.9443 15.4322 18.4287 16.4336 18.8442C16.863 19.0226 17.2831 19.188 17.6939 19.3403C18.2745 19.5562 18.835 19.7461 19.3692 19.9063L19.4229 19.9224C20.6792 20.2964 21.7383 20.4932 22.5713 20.5083H22.6563C23.7129 20.5083 24.4288 20.1968 24.7842 19.5806C25.2281 18.8179 24.9834 17.8071 24.0586 16.5776Z" fill="#FFB700"/>
</g>
</svg>
