<svg width="25" height="25" viewBox="0 0 25 25" fill="none" xmlns="http://www.w3.org/2000/svg">
<g id="rocket-sharp">
<path id="Vector" d="M23.3221 1.86809C23.3132 1.8249 23.2921 1.78515 23.2614 1.7535C23.2307 1.72185 23.1917 1.69961 23.1488 1.68938C20.2889 0.990157 13.681 3.48186 10.1009 7.06047C9.46237 7.69385 8.88025 8.38167 8.36116 9.11613C7.25716 9.01848 6.15315 9.10002 5.21224 9.51018C2.55745 10.6786 1.7845 13.7275 1.56917 15.039C1.55695 15.1108 1.56156 15.1844 1.58263 15.2541C1.60369 15.3238 1.64064 15.3877 1.69057 15.4407C1.7405 15.4937 1.80204 15.5344 1.87037 15.5596C1.93869 15.5848 2.01192 15.5938 2.08431 15.5859L6.34749 15.1156C6.35053 15.4371 6.36993 15.7581 6.40559 16.0776C6.42705 16.2994 6.52552 16.5067 6.68392 16.6635L8.33479 18.3105C8.49173 18.4687 8.69896 18.5671 8.92073 18.5888C9.23839 18.6243 9.55765 18.6437 9.87727 18.6469L9.4095 22.9047C9.4017 22.9771 9.41077 23.0503 9.43599 23.1185C9.46122 23.1868 9.50192 23.2483 9.5549 23.2982C9.60788 23.3481 9.6717 23.3851 9.74135 23.4062C9.81101 23.4273 9.88461 23.432 9.95638 23.4198C11.2655 23.2099 14.3197 22.4369 15.4813 19.7821C15.8914 18.8412 15.9754 17.7426 15.8807 16.644C16.6169 16.1248 17.3066 15.5426 17.9417 14.9037C21.533 11.3305 24.0106 4.87004 23.3221 1.86809ZM14.3587 10.641C14.0308 10.3133 13.8074 9.8957 13.7169 9.44102C13.6263 8.98633 13.6726 8.51501 13.85 8.08665C14.0273 7.6583 14.3277 7.29216 14.7132 7.03456C15.0986 6.77696 15.5518 6.63946 16.0155 6.63946C16.4791 6.63946 16.9323 6.77696 17.3177 7.03456C17.7032 7.29216 18.0036 7.6583 18.1809 8.08665C18.3583 8.51501 18.4046 8.98633 18.3141 9.44102C18.2235 9.8957 18.0001 10.3133 17.6722 10.641C17.4547 10.8588 17.1965 11.0316 16.9122 11.1494C16.6279 11.2673 16.3232 11.328 16.0155 11.328C15.7077 11.328 15.403 11.2673 15.1187 11.1494C14.8344 11.0316 14.5762 10.8588 14.3587 10.641Z" fill="#004E9F"/>
<path id="Vector_2" d="M8.22266 19.5034C7.95508 19.7715 7.52588 19.876 7.00928 19.9653C5.84863 20.1631 4.82373 19.1602 5.03223 17.9868C5.11182 17.542 5.34717 16.9185 5.49365 16.772C5.52567 16.7406 5.54698 16.6999 5.55456 16.6557C5.56214 16.6115 5.5556 16.566 5.53587 16.5257C5.51614 16.4855 5.48422 16.4524 5.44465 16.4313C5.40508 16.4102 5.35986 16.4021 5.31543 16.4082C4.66639 16.4876 4.06257 16.7819 3.6001 17.2441C2.45215 18.3931 2.34375 22.6563 2.34375 22.6563C2.34375 22.6563 6.60937 22.5479 7.75732 21.3989C8.22102 20.9368 8.51566 20.3321 8.59375 19.6821C8.61182 19.478 8.36328 19.3564 8.22266 19.5034Z" fill="#004E9F"/>
</g>
</svg>
