<svg width="25" height="24" viewBox="0 0 25 24" fill="none" xmlns="http://www.w3.org/2000/svg">
<g id="send">
<path id="Vector" d="M22.8402 10.6424L22.8327 10.6391L2.81328 2.33563C2.6449 2.26516 2.46167 2.23752 2.27999 2.25519C2.09831 2.27286 1.92384 2.33528 1.77219 2.43688C1.61197 2.54187 1.48036 2.68504 1.38921 2.85352C1.29805 3.02199 1.25022 3.21049 1.25 3.40204V8.71251C1.25009 8.97438 1.34153 9.22801 1.50856 9.42969C1.67558 9.63138 1.90774 9.76847 2.165 9.81735L13.0836 11.8363C13.1265 11.8444 13.1652 11.8672 13.1931 11.9009C13.2209 11.9345 13.2362 11.9768 13.2362 12.0205C13.2362 12.0641 13.2209 12.1064 13.1931 12.1401C13.1652 12.1737 13.1265 12.1966 13.0836 12.2047L2.16547 14.2236C1.90828 14.2724 1.67614 14.4093 1.50903 14.6108C1.34193 14.8123 1.25033 15.0657 1.25 15.3275V20.6389C1.24988 20.8218 1.29517 21.0019 1.38181 21.163C1.46845 21.3241 1.59373 21.4612 1.74641 21.5619C1.93006 21.6839 2.1456 21.7491 2.36609 21.7494C2.51938 21.7493 2.6711 21.7185 2.81234 21.6589L22.8313 13.4028L22.8402 13.3986C23.1096 13.2828 23.3392 13.0905 23.5006 12.8456C23.6619 12.6006 23.7479 12.3138 23.7479 12.0205C23.7479 11.7272 23.6619 11.4403 23.5006 11.1954C23.3392 10.9504 23.1096 10.7582 22.8402 10.6424Z" fill="#004E9F"/>
</g>
</svg>
