<svg width="24" height="25" viewBox="0 0 24 25" fill="none" xmlns="http://www.w3.org/2000/svg">
<g id="add-circle-outline">
<path id="Vector (Stroke)" fill-rule="evenodd" clip-rule="evenodd" d="M2.25 12.1797C2.25 6.79672 6.61704 2.42969 12 2.42969C17.383 2.42969 21.75 6.79672 21.75 12.1797C21.75 17.5627 17.383 21.9297 12 21.9297C6.61704 21.9297 2.25 17.5627 2.25 12.1797ZM12 3.92969C7.44546 3.92969 3.75 7.62515 3.75 12.1797C3.75 16.7342 7.44546 20.4297 12 20.4297C16.5545 20.4297 20.25 16.7342 20.25 12.1797C20.25 7.62515 16.5545 3.92969 12 3.92969Z" fill="white"/>
<path id="Vector (Stroke)_2" fill-rule="evenodd" clip-rule="evenodd" d="M12 7.67969C12.4142 7.67969 12.75 8.01547 12.75 8.42969V11.4297H15.75C16.1642 11.4297 16.5 11.7655 16.5 12.1797C16.5 12.5939 16.1642 12.9297 15.75 12.9297H12.75V15.9297C12.75 16.3439 12.4142 16.6797 12 16.6797C11.5858 16.6797 11.25 16.3439 11.25 15.9297V12.9297H8.25C7.83579 12.9297 7.5 12.5939 7.5 12.1797C7.5 11.7655 7.83579 11.4297 8.25 11.4297H11.25V8.42969C11.25 8.01547 11.5858 7.67969 12 7.67969Z" fill="white"/>
</g>
</svg>
