<svg width="18" height="17" viewBox="0 0 18 17" fill="none" xmlns="http://www.w3.org/2000/svg">
<path id="Vector" d="M14.8462 0.679688H3.15385C2.58311 0.681337 2.03621 0.912334 1.63264 1.32221C1.22907 1.73209 1.00162 2.28753 1 2.86719V10.3672C1.00162 10.9468 1.22907 11.5023 1.63264 11.9122C2.03621 12.322 2.58311 12.553 3.15385 12.5547H4.69231V15.6797L8.29692 12.6273C8.35228 12.5804 8.42211 12.5547 8.49423 12.5547H14.8462C15.4169 12.553 15.9638 12.322 16.3674 11.9122C16.7709 11.5023 16.9984 10.9468 17 10.3672V2.86719C16.9984 2.28753 16.7709 1.73209 16.3674 1.32221C15.9638 0.912334 15.4169 0.681337 14.8462 0.679688Z" stroke="white" stroke-linejoin="round"/>
</svg>
