<svg width="24" height="25" viewBox="0 0 24 25" fill="none" xmlns="http://www.w3.org/2000/svg">
<g id="icons/Close Circle/Line">
<path id="Shape" fill-rule="evenodd" clip-rule="evenodd" d="M12 20.1797C16.4183 20.1797 20 16.598 20 12.1797C20 7.76141 16.4183 4.17969 12 4.17969C7.58172 4.17969 4 7.76141 4 12.1797C4 16.598 7.58172 20.1797 12 20.1797ZM12 22.1797C17.5228 22.1797 22 17.7025 22 12.1797C22 6.65684 17.5228 2.17969 12 2.17969C6.47715 2.17969 2 6.65684 2 12.1797C2 17.7025 6.47715 22.1797 12 22.1797Z" fill="white"/>
<path id="Shape_2" fill-rule="evenodd" clip-rule="evenodd" d="M8.29289 8.47258C8.68342 8.08206 9.31658 8.08206 9.70711 8.47258L12 10.7655L14.2929 8.47258C14.6834 8.08206 15.3166 8.08206 15.7071 8.47258C16.0976 8.8631 16.0976 9.49627 15.7071 9.88679L13.4142 12.1797L15.7071 14.4726C16.0976 14.8631 16.0976 15.4963 15.7071 15.8868C15.3166 16.2773 14.6834 16.2773 14.2929 15.8868L12 13.5939L9.70711 15.8868C9.31658 16.2773 8.68342 16.2773 8.29289 15.8868C7.90237 15.4963 7.90237 14.8631 8.29289 14.4726L10.5858 12.1797L8.29289 9.88679C7.90237 9.49627 7.90237 8.8631 8.29289 8.47258Z" fill="white"/>
</g>
</svg>
