<svg width="12" height="12" viewBox="0 0 12 12" fill="none" xmlns="http://www.w3.org/2000/svg">
<g id="copy-sharp" clip-path="url(#clip0_1_7832)">
<path id="Vector" d="M10.2969 10.4922H3.42188C3.28512 10.4922 3.15397 10.4379 3.05727 10.3412C2.96057 10.2445 2.90625 10.1133 2.90625 9.97656V2.92969C2.90625 2.83852 2.94247 2.75109 3.00693 2.68662C3.0714 2.62215 3.15883 2.58594 3.25 2.58594H10.2969C10.4336 2.58594 10.5648 2.64026 10.6615 2.73696C10.7582 2.83366 10.8125 2.96481 10.8125 3.10156V9.97656C10.8125 10.1133 10.7582 10.2445 10.6615 10.3412C10.5648 10.4379 10.4336 10.4922 10.2969 10.4922Z" fill="url(#paint0_linear_1_7832)"/>
<path id="Vector_2" d="M2.90625 1.89844H9.09375V1.38281C9.09375 1.24606 9.03942 1.11491 8.94273 1.01821C8.84603 0.921512 8.71488 0.867188 8.57812 0.867188H1.78906C1.62952 0.867188 1.47651 0.930566 1.36369 1.04338C1.25088 1.1562 1.1875 1.30921 1.1875 1.46875V8.25781C1.1875 8.39456 1.24182 8.52572 1.33852 8.62241C1.43522 8.71911 1.56637 8.77344 1.70312 8.77344H2.21875V2.58594C2.21875 2.4036 2.29118 2.22873 2.42011 2.0998C2.54905 1.97087 2.72391 1.89844 2.90625 1.89844Z" fill="url(#paint1_linear_1_7832)"/>
</g>
<defs>
<linearGradient id="paint0_linear_1_7832" x1="6.85938" y1="10.4922" x2="6.85938" y2="2.58594" gradientUnits="userSpaceOnUse">
<stop stop-color="#004E9F"/>
<stop offset="1" stop-color="#006EDF"/>
</linearGradient>
<linearGradient id="paint1_linear_1_7832" x1="5.14063" y1="8.77344" x2="5.14063" y2="0.867188" gradientUnits="userSpaceOnUse">
<stop stop-color="#004E9F"/>
<stop offset="1" stop-color="#006EDF"/>
</linearGradient>
<clipPath id="clip0_1_7832">
<rect width="11" height="11" fill="white" transform="translate(0.5 0.179688)"/>
</clipPath>
</defs>
</svg>
