<svg width="20" height="21" viewBox="0 0 20 21" fill="none" xmlns="http://www.w3.org/2000/svg">
<g id="more-fill 1" clip-path="url(#clip0_294_10212)">
<g id="Group">
<path id="Vector" d="M4.16667 8.51367C3.25 8.51367 2.5 9.26367 2.5 10.1803C2.5 11.097 3.25 11.847 4.16667 11.847C5.08333 11.847 5.83333 11.097 5.83333 10.1803C5.83333 9.26367 5.08333 8.51367 4.16667 8.51367ZM15.8333 8.51367C14.9167 8.51367 14.1667 9.26367 14.1667 10.1803C14.1667 11.097 14.9167 11.847 15.8333 11.847C16.75 11.847 17.5 11.097 17.5 10.1803C17.5 9.26367 16.75 8.51367 15.8333 8.51367ZM10 8.51367C9.08333 8.51367 8.33333 9.26367 8.33333 10.1803C8.33333 11.097 9.08333 11.847 10 11.847C10.9167 11.847 11.6667 11.097 11.6667 10.1803C11.6667 9.26367 10.9167 8.51367 10 8.51367Z" fill="#777E91"/>
</g>
</g>
<defs>
<clipPath id="clip0_294_10212">
<rect width="20" height="20" fill="white" transform="translate(0 0.179688)"/>
</clipPath>
</defs>
</svg>
