<svg width="16" height="17" viewBox="0 0 16 17" fill="none" xmlns="http://www.w3.org/2000/svg">
<g id="icons/Edit/Line" clip-path="url(#clip0_258_7767)">
<path id="Shape" d="M2 14.8464C2 14.4782 2.29848 14.1797 2.66667 14.1797H13.3333C13.7015 14.1797 14 14.4782 14 14.8464C14 15.2145 13.7015 15.513 13.3333 15.513H2.66667C2.29848 15.513 2 15.2145 2 14.8464Z" fill="white"/>
<path id="Shape_2" fill-rule="evenodd" clip-rule="evenodd" d="M11.1381 2.26102C10.8777 2.00067 10.4556 2.00067 10.1953 2.26102L9.6095 2.84678L12 5.23731L12.5858 4.65154C12.8461 4.39119 12.8461 3.96908 12.5858 3.70873L11.1381 2.26102ZM4.6095 7.84678L8.66669 3.78959L11.0572 6.18012L7.00002 10.2373L4.6095 7.84678ZM3.66669 8.78959L3.33333 9.12295V11.5135H5.72386L6.05721 11.1801L3.66669 8.78959ZM9.25245 1.31821C10.0335 0.53716 11.2998 0.53716 12.0809 1.31821L13.5286 2.76592C14.3096 3.54697 14.3096 4.8133 13.5286 5.59435L6.66667 12.4563C6.41662 12.7063 6.07748 12.8468 5.72386 12.8468H3.33333C2.59695 12.8468 2 12.2499 2 11.5135V9.12295C2 8.76932 2.14048 8.43019 2.39052 8.18014L9.25245 1.31821Z" fill="white"/>
</g>
<defs>
<clipPath id="clip0_258_7767">
<rect width="16" height="16" fill="white" transform="translate(0 0.179688)"/>
</clipPath>
</defs>
</svg>
