<svg width="16" height="17" viewBox="0 0 16 17" fill="none" xmlns="http://www.w3.org/2000/svg">
<g id="icons/Globe/Line">
<path id="Shape" fill-rule="evenodd" clip-rule="evenodd" d="M8.00065 13.5137C10.9462 13.5137 13.334 11.1259 13.334 8.18034C13.334 5.23482 10.9462 2.84701 8.00065 2.84701C5.05513 2.84701 2.66732 5.23482 2.66732 8.18034C2.66732 11.1259 5.05513 13.5137 8.00065 13.5137ZM8.00065 14.847C11.6825 14.847 14.6673 11.8622 14.6673 8.18034C14.6673 4.49844 11.6825 1.51367 8.00065 1.51367C4.31875 1.51367 1.33398 4.49844 1.33398 8.18034C1.33398 11.8622 4.31875 14.847 8.00065 14.847Z" fill="#777E91"/>
<path id="Shape_2" fill-rule="evenodd" clip-rule="evenodd" d="M9.1638 12.2981C9.65627 11.3132 9.99935 9.85918 9.99935 8.18034C9.99935 6.5015 9.65627 5.04752 9.1638 4.06258C8.63146 2.99789 8.14272 2.84701 7.99935 2.84701C7.85598 2.84701 7.36724 2.99789 6.8349 4.06258C6.34243 5.04752 5.99935 6.5015 5.99935 8.18034C5.99935 9.85918 6.34243 11.3132 6.8349 12.2981C7.36724 13.3628 7.85598 13.5137 7.99935 13.5137C8.14272 13.5137 8.63146 13.3628 9.1638 12.2981ZM7.99935 14.847C9.8403 14.847 11.3327 11.8622 11.3327 8.18034C11.3327 4.49844 9.8403 1.51367 7.99935 1.51367C6.1584 1.51367 4.66602 4.49844 4.66602 8.18034C4.66602 11.8622 6.1584 14.847 7.99935 14.847Z" fill="#777E91"/>
<path id="Shape_3" fill-rule="evenodd" clip-rule="evenodd" d="M14.6344 8.84701C14.6562 8.62773 14.6673 8.40534 14.6673 8.18034C14.6673 7.95534 14.6562 7.73294 14.6344 7.51367H1.3669C1.34513 7.73294 1.33398 7.95534 1.33398 8.18034C1.33398 8.40534 1.34513 8.62773 1.3669 8.84701H14.6344Z" fill="#777E91"/>
</g>
</svg>
