<svg width="20" height="21" viewBox="0 0 20 21" fill="none" xmlns="http://www.w3.org/2000/svg">
<g id="icons/Share Square/Line">
<path id="Shape" fill-rule="evenodd" clip-rule="evenodd" d="M7.49882 8.5468C7.52332 9.00639 7.17061 9.39882 6.71103 9.42332C6.08379 9.45676 5.587 9.49766 5.19878 9.5386C4.67743 9.59359 4.36065 9.91383 4.30799 10.3745C4.23238 11.0359 4.16667 12.0367 4.16667 13.5136C4.16667 14.9905 4.23238 15.9913 4.30799 16.6527C4.36074 17.1141 4.67672 17.4335 5.19729 17.4884C6.10898 17.5846 7.61604 17.6803 10 17.6803C12.384 17.6803 13.891 17.5846 14.8027 17.4884C15.3233 17.4335 15.6393 17.1141 15.692 16.6527C15.7676 15.9913 15.8333 14.9905 15.8333 13.5136C15.8333 12.0367 15.7676 11.0359 15.692 10.3745C15.6394 9.91383 15.3226 9.59359 14.8012 9.5386C14.413 9.49766 13.9162 9.45676 13.289 9.42332C12.8294 9.39882 12.4767 9.00639 12.5012 8.5468C12.5257 8.08722 12.9181 7.73451 13.3777 7.75902C14.0301 7.79379 14.5558 7.83681 14.976 7.88113C16.213 8.01159 17.1997 8.88917 17.3479 10.1852C17.4323 10.9238 17.5 11.9899 17.5 13.5136C17.5 15.0373 17.4323 16.1034 17.3479 16.842C17.1998 18.1372 16.2154 19.0152 14.9776 19.1459C13.9933 19.2498 12.4257 19.3469 10 19.3469C7.57435 19.3469 6.00672 19.2498 5.02236 19.1459C3.78459 19.0152 2.80017 18.1372 2.65211 16.842C2.56767 16.1034 2.5 15.0373 2.5 13.5136C2.5 11.9899 2.56767 10.9238 2.65211 10.1852C2.80026 8.88917 3.78697 8.01159 5.02397 7.88113C5.44422 7.83681 5.96994 7.79379 6.6223 7.75902C7.08189 7.73451 7.47432 8.08722 7.49882 8.5468Z" fill="#777E91"/>
<path id="Shape_2" fill-rule="evenodd" clip-rule="evenodd" d="M7.67259 5.35293C7.34715 5.67836 6.81951 5.67836 6.49408 5.35293C6.16864 5.02749 6.16864 4.49985 6.49408 4.17442L9.41074 1.25775C9.73618 0.932313 10.2638 0.932313 10.5893 1.25775L13.5059 4.17442C13.8314 4.49985 13.8314 5.02749 13.5059 5.35293C13.1805 5.67836 12.6528 5.67836 12.3274 5.35293L10.8333 3.85885V11.847C10.8333 12.3072 10.4602 12.6803 10 12.6803C9.53976 12.6803 9.16667 12.3072 9.16667 11.847V3.85885L7.67259 5.35293Z" fill="#777E91"/>
</g>
</svg>
