<svg width="76" height="75" viewBox="0 0 76 75" fill="none" xmlns="http://www.w3.org/2000/svg">
<path d="M47.375 6.25H28.625C26.8991 6.25 25.5 7.64911 25.5 9.375V15.625C25.5 17.3509 26.8991 18.75 28.625 18.75H47.375C49.1009 18.75 50.5 17.3509 50.5 15.625V9.375C50.5 7.64911 49.1009 6.25 47.375 6.25Z" stroke="#004E9F" stroke-width="5" stroke-linecap="round" stroke-linejoin="round"/>
<path d="M50.5 12.5H56.75C58.4076 12.5 59.9973 13.1585 61.1694 14.3306C62.3415 15.5027 63 17.0924 63 18.75V62.5C63 64.1576 62.3415 65.7473 61.1694 66.9194C59.9973 68.0915 58.4076 68.75 56.75 68.75H19.25C17.5924 68.75 16.0027 68.0915 14.8306 66.9194C13.6585 65.7473 13 64.1576 13 62.5V18.75C13 17.0924 13.6585 15.5027 14.8306 14.3306C16.0027 13.1585 17.5924 12.5 19.25 12.5H25.5" stroke="#004E9F" stroke-width="5" stroke-linecap="round" stroke-linejoin="round"/>
<path d="M38 34.375H50.5" stroke="#004E9F" stroke-width="5" stroke-linecap="round" stroke-linejoin="round"/>
<path d="M38 50H50.5" stroke="#004E9F" stroke-width="5" stroke-linecap="round" stroke-linejoin="round"/>
<path d="M25.5 34.375H25.5313" stroke="#004E9F" stroke-width="5" stroke-linecap="round" stroke-linejoin="round"/>
<path d="M25.5 50H25.5313" stroke="#004E9F" stroke-width="5" stroke-linecap="round" stroke-linejoin="round"/>
</svg>
