<svg width="76" height="75" viewBox="0 0 76 75" fill="none" xmlns="http://www.w3.org/2000/svg">
<path d="M34.875 12.5H13C11.3424 12.5 9.75268 13.1585 8.58058 14.3306C7.40848 15.5027 6.75 17.0924 6.75 18.75V62.5C6.75 64.1576 7.40848 65.7473 8.58058 66.9194C9.75268 68.0915 11.3424 68.75 13 68.75H56.75C58.4076 68.75 59.9973 68.0915 61.1694 66.9194C62.3415 65.7473 63 64.1576 63 62.5V40.625" stroke="#FE1500" stroke-width="5" stroke-linecap="round" stroke-linejoin="round"/>
<path d="M58.3125 7.81272C59.5557 6.56952 61.2418 5.87109 63 5.87109C64.7582 5.87109 66.4443 6.56952 67.6875 7.81272C68.9307 9.05592 69.6291 10.7421 69.6291 12.5002C69.6291 14.2584 68.9307 15.9445 67.6875 17.1877L38 46.8752L25.5 50.0002L28.625 37.5002L58.3125 7.81272Z" stroke="#FE1500" stroke-width="5" stroke-linecap="round" stroke-linejoin="round"/>
</svg>
