<svg width="145" height="67" viewBox="0 0 145 67" fill="none" xmlns="http://www.w3.org/2000/svg">
<g clip-path="url(#clip0_197_36586)">
<path d="M16.6684 55.4806C17.8108 56.8317 18.3985 58.2927 18.3985 59.847C18.3985 60.8741 18.2227 61.7803 17.8712 62.6316C17.4923 63.4829 16.9925 64.2134 16.3169 64.8011C15.6743 65.4162 14.9109 65.8831 14.0596 66.2071C13.2082 66.5586 12.302 66.7069 11.3628 66.7069C9.98425 66.7069 8.7265 66.4158 7.57861 65.8281C6.40325 65.2405 5.40914 64.4496 4.55783 63.4555C3.70651 62.4284 3.06391 61.286 2.59157 60.0557C2.15219 58.7925 1.91602 57.5073 1.91602 56.1836C1.91602 54.86 2.20711 53.5143 2.73437 52.3115C3.2891 51.1362 4.02507 50.1146 4.96426 49.2358C5.90345 48.3845 6.95797 47.7419 8.16079 47.2696C9.36361 46.7972 10.6214 46.5665 11.9121 46.5665C12.9391 46.5665 13.9332 46.7148 14.8724 47.0334V52.7509C14.1969 52.4269 13.4334 52.2511 12.6151 52.2511C11.3848 52.2511 10.3303 52.6301 9.45149 53.3661C8.57272 54.1295 8.07292 55.1565 7.98504 56.4747C7.98504 57.0898 8.10038 57.6775 8.27613 58.2652C8.47935 58.8529 8.77594 59.3472 9.15491 59.8195C9.53388 60.2589 10.0062 60.6104 10.5335 60.8741C11.0607 61.1377 11.6484 61.253 12.2636 61.253C13.0819 61.253 13.4938 60.9894 13.4938 60.5226C13.4938 59.9953 13.2028 59.7591 12.6151 59.7591H11.2969L11.2695 55.4806H16.6629H16.6684ZM27.9881 57.6775C27.7245 57.5018 27.4608 57.4414 27.1972 57.4414C26.7853 57.4414 26.4063 57.5897 26.0823 57.9412C25.7912 58.2927 25.6154 58.6716 25.6154 59.144V66.2401H20.3098V57.7379C20.3098 56.5626 20.6009 55.541 21.2161 54.6622C21.8037 53.7835 22.5672 53.0804 23.5613 52.6081C24.5279 52.1083 25.555 51.8776 26.637 51.8776C27.016 51.8776 27.4553 51.938 27.9881 52.0259V57.683V57.6775ZM34.9029 59.9953C34.7547 59.6438 34.6668 59.2648 34.6668 58.9133C34.6668 58.5014 34.7547 58.0345 34.9579 57.5073H37.8029C37.715 57.0404 37.5118 56.656 37.1878 56.3923C36.8637 56.1287 36.4847 55.9804 35.9849 55.9804C35.2819 55.9804 34.7217 56.2715 34.2823 56.8866C33.8704 57.5018 33.6672 58.2377 33.6672 59.0561C33.6672 59.8745 33.8704 60.55 34.2549 61.1377C34.6668 61.7254 35.2215 62.0165 35.9245 62.0165C36.5671 62.0165 37.0999 61.7528 37.5063 61.253L40.5271 64.8285C39.2089 65.9435 37.7425 66.4982 36.1003 66.4982C35.1336 66.4982 34.2219 66.3225 33.3157 65.9435C32.4094 65.592 31.5856 65.0647 30.8826 64.3892C30.1521 63.7136 29.5919 62.9227 29.1799 62.0165C28.7406 61.0773 28.5373 60.0832 28.5373 59.0286C28.5373 57.7379 28.8888 56.5681 29.5644 55.4531C30.24 54.3382 31.1462 53.4594 32.2611 52.8168C33.4035 52.1742 34.5789 51.8502 35.7817 51.8502C37.2482 51.8502 38.5059 52.2291 39.6209 52.9651C40.7358 53.7285 41.5871 54.7227 42.1693 55.9859C42.7515 57.2491 43.0481 58.5673 43.0481 60.0008H34.8975L34.9029 59.9953ZM52.9068 66.4158C52.44 66.4433 52.0884 66.4762 51.8797 66.4762C50.5286 66.4762 49.2983 66.1522 48.1559 65.5096C46.9806 64.867 46.0743 63.9827 45.3713 62.8403C44.6958 61.665 44.3443 60.3798 44.3443 58.9682C44.3443 57.6501 44.6958 56.4472 45.3713 55.3598C46.0469 54.2723 46.9531 53.4265 48.0681 52.7784C49.183 52.1632 50.3858 51.8392 51.6161 51.8392C52.8464 51.8392 54.1371 52.1632 55.252 52.8058C56.3944 53.4484 57.2732 54.3327 57.9488 55.4751C58.5914 56.59 58.9154 57.8203 58.9154 59.1385V66.2346H53.5824V59.6987C53.5824 59.111 53.4066 58.5838 53.0551 58.1169C52.7036 57.6775 52.2367 57.4414 51.6161 57.4414C50.9955 57.4414 50.5616 57.6446 50.2101 58.0565C49.8586 58.4684 49.6828 58.9353 49.6828 59.4625C49.6828 59.9898 49.8586 60.4292 50.1826 60.8136C50.5067 61.1981 50.946 61.4013 51.5337 61.4288C52.1214 61.4288 52.5882 61.2805 52.9123 60.9619V66.4158H52.9068ZM66.7475 52.1358H69.0927V57.6775H66.7475C66.7475 58.6442 66.9232 59.3802 67.2747 59.9074C67.6537 60.4347 68.3018 60.6983 69.208 60.6983V66.2401C67.7691 66.2401 66.4509 65.916 65.281 65.3009C64.1057 64.6583 63.172 63.774 62.4964 62.6316C61.8538 61.4892 61.5023 60.171 61.5023 58.7046V46.6874H66.7475V52.1413V52.1358ZM84.246 66.2401H79.0009V52.1413H84.246V66.2401ZM83.5156 46.627C83.9549 47.1268 84.1582 47.709 84.1582 48.4175C84.1582 49.126 83.9549 49.7082 83.5156 50.208C83.0762 50.6748 82.461 50.9384 81.6701 50.9384C80.8792 50.9384 80.2311 50.7023 79.7918 50.208C79.3524 49.7137 79.1162 49.126 79.1162 48.4504C79.1162 47.7749 79.3524 47.1597 79.7918 46.6599C80.2586 46.1327 80.8737 45.8965 81.6701 45.8965C82.4665 45.8965 83.0762 46.1327 83.5156 46.627ZM95.5053 58.9682C95.5053 59.6438 95.3296 60.1985 95.0055 60.6379C94.6815 61.0773 94.1872 61.3135 93.5116 61.3135C92.9843 61.3135 92.5449 61.1102 92.1934 60.6983C91.8694 60.2864 91.6936 59.7921 91.6936 59.2044C91.7541 58.7046 91.9847 58.2652 92.3692 57.9412C92.7482 57.5897 93.1601 57.4414 93.6324 57.4414C94.0718 57.4414 94.4508 57.5567 94.7748 57.8533V51.96C94.3959 51.9326 94.0993 51.8996 93.8686 51.8996C92.9019 51.8996 91.9628 52.0754 91.0236 52.3994C90.1173 52.7234 89.266 53.2178 88.5301 53.8384C87.7941 54.459 87.2119 55.217 86.8 56.0683C86.3606 56.9471 86.1574 57.9137 86.1574 58.9682C86.1574 60.3468 86.4814 61.6045 87.124 62.7799C87.7392 63.9223 88.6179 64.8615 89.7329 65.5371C90.8149 66.1797 92.0781 66.5312 93.4292 66.5312C94.8957 66.5312 96.1534 66.1797 97.2409 65.4766C98.3558 64.7736 99.2071 63.807 99.7893 62.6316C100.377 61.4288 100.668 60.1106 100.668 58.7046V46.9181H95.5108V58.9682H95.5053ZM108.994 59.9953C108.846 59.6438 108.758 59.2648 108.758 58.9133C108.758 58.5014 108.846 58.0345 109.049 57.5073H111.894C111.807 57.0404 111.603 56.656 111.279 56.3923C110.955 56.1287 110.576 55.9804 110.076 55.9804C109.373 55.9804 108.813 56.2715 108.374 56.8866C107.962 57.5018 107.759 58.2377 107.759 59.0561C107.759 59.8745 107.962 60.55 108.346 61.1377C108.758 61.7254 109.313 62.0165 110.016 62.0165C110.659 62.0165 111.191 61.7528 111.598 61.253L114.619 64.8285C113.3 65.9435 111.834 66.4982 110.192 66.4982C109.225 66.4982 108.313 66.3225 107.407 65.9435C106.501 65.592 105.677 65.0647 104.974 64.3892C104.244 63.7136 103.683 62.9227 103.271 62.0165C102.832 61.0773 102.629 60.0832 102.629 59.0286C102.629 57.7379 102.98 56.5681 103.656 55.4531C104.331 54.3382 105.238 53.4594 106.353 52.8168C107.495 52.1742 108.67 51.8502 109.873 51.8502C111.34 51.8502 112.597 52.2291 113.712 52.9651C114.827 53.7285 115.679 54.7227 116.261 55.9859C116.843 57.2491 117.14 58.5673 117.14 60.0008H108.989L108.994 59.9953ZM126.993 66.4158C126.526 66.4433 126.174 66.4762 125.966 66.4762C124.615 66.4762 123.384 66.1522 122.242 65.5096C121.067 64.867 120.16 63.9827 119.457 62.8403C118.782 61.665 118.43 60.3798 118.43 58.9682C118.43 57.6501 118.782 56.4472 119.457 55.3598C120.133 54.2778 121.039 53.4265 122.154 52.7784C123.269 52.1632 124.472 51.8392 125.702 51.8392C126.932 51.8392 128.223 52.1632 129.338 52.8058C130.48 53.4484 131.359 54.3327 132.035 55.4751C132.677 56.59 133.001 57.8203 133.001 59.1385V66.2346H127.668V59.6987C127.668 59.111 127.493 58.5838 127.141 58.1169C126.79 57.6775 126.323 57.4414 125.702 57.4414C125.082 57.4414 124.648 57.6446 124.296 58.0565C123.945 58.4684 123.769 58.9353 123.769 59.4625C123.769 59.9898 123.945 60.4292 124.269 60.8136C124.593 61.1926 125.032 61.4013 125.62 61.4288C126.207 61.4288 126.674 61.2805 126.998 60.9619V66.4158H126.993ZM144.557 57.9137C143.854 57.9412 143.354 58.0895 143.03 58.4135C142.739 58.7046 142.531 59.2044 142.476 59.9404C142.415 60.9345 142.212 61.8462 141.888 62.6646C141.537 63.5159 141.097 64.2189 140.537 64.7736C139.949 65.3613 139.274 65.8007 138.483 66.1247C137.692 66.4488 136.813 66.5916 135.814 66.5916H134.462V61.0224C135.369 61.0224 136.044 60.8466 136.456 60.4951C136.868 60.171 137.099 59.5559 137.159 58.6497C137.247 56.5681 137.714 54.9863 138.626 53.9318C139.532 52.8498 140.998 52.317 142.992 52.317H144.546V57.9137H144.557Z" fill="#1A1A18"/>
<path d="M27.5487 18.6937C29.6687 21.1982 30.7562 23.9169 30.7562 26.8004C30.7562 28.7062 30.4322 30.3924 29.7786 31.9687C29.0701 33.545 28.1474 34.9071 26.8951 35.9945C25.6978 37.137 24.2863 38.0047 22.7045 38.6034C21.1282 39.257 19.442 39.5261 17.7009 39.5261C15.147 39.5261 12.8073 38.9824 10.6872 37.8949C8.51228 36.8074 6.66137 35.341 5.08507 33.49C3.50877 31.5842 2.31144 29.4642 1.44366 27.1794C0.6253 24.8396 0.191406 22.445 0.191406 20.0009C0.191406 17.5568 0.735147 15.0523 1.71278 12.8224C2.74534 10.6474 4.10744 8.74161 5.8485 7.11039C7.58957 5.53409 9.54484 4.33676 11.7747 3.46897C14.0046 2.60118 16.3443 2.1618 18.739 2.1618C20.6448 2.1618 22.4903 2.43641 24.2313 3.02959V13.6353C22.9791 13.0366 21.5675 12.7126 20.0407 12.7126C17.7559 12.7126 15.8006 13.4211 14.1639 14.7777C12.5327 16.1892 11.61 18.095 11.4452 20.5446C11.4452 21.687 11.6649 22.7745 11.9889 23.862C12.3679 24.9495 12.9116 25.8722 13.6201 26.7455C14.3287 27.5638 15.1964 28.2119 16.1741 28.7062C17.1517 29.2005 18.2392 29.4147 19.3816 29.4147C20.903 29.4147 21.6664 28.9259 21.6664 28.0526C21.6664 27.075 21.1227 26.6411 20.0352 26.6411H17.5856L17.5307 18.6992H27.5377L27.5487 18.6937ZM43.8115 38.6583H34.0736V12.4929H43.8115V38.6528V38.6583ZM42.4549 2.27164C43.2732 3.19436 43.6522 4.28184 43.6522 5.58901C43.6522 6.89619 43.2732 7.98367 42.4549 8.90638C41.6365 9.77417 40.4941 10.2685 39.0277 10.2685C37.5612 10.2685 36.3639 9.83458 35.5455 8.90638C34.7272 7.97818 34.2933 6.89619 34.2933 5.64393C34.2933 4.39168 34.7272 3.24928 35.5455 2.32657C36.4133 1.34893 37.5557 0.915039 39.0277 0.915039C40.4996 0.915039 41.6365 1.34893 42.4549 2.27714V2.27164ZM50.5011 30.1178C51.0449 29.1401 51.7534 28.3218 52.6761 27.7231C53.5988 27.1244 54.5819 26.8553 55.6694 26.8553C56.8118 26.8553 57.8444 27.1299 58.8769 27.7231C59.8546 28.2668 60.618 29.0303 61.2167 30.0079C61.8153 30.9855 62.0845 32.0181 62.0845 33.1605C62.0845 34.3029 61.8098 35.4453 61.2167 36.368C60.618 37.2358 59.8546 37.9443 58.8769 38.3782C57.8993 38.867 56.8667 39.0867 55.8287 39.0867C54.1426 39.0867 52.731 38.543 51.4788 37.5104C50.2814 36.4779 49.6828 35.0059 49.6828 33.1605C49.6828 32.128 49.9574 31.0954 50.5011 30.1123V30.1178ZM69.6474 30.1178C70.1911 29.1401 70.8996 28.3218 71.8223 27.7231C72.7451 27.1244 73.7282 26.8553 74.8157 26.8553C75.9581 26.8553 76.9906 27.1299 78.0232 27.7231C79.0008 28.2668 79.7643 29.0303 80.3629 30.0079C80.9616 30.9855 81.2307 32.0181 81.2307 33.1605C81.2307 34.3029 80.9561 35.4453 80.3629 36.368C79.7643 37.2358 79.0008 37.9443 78.0232 38.3782C77.0456 38.867 76.013 39.0867 74.975 39.0867C73.2888 39.0867 71.8773 38.543 70.625 37.5104C69.4277 36.4779 68.829 35.0059 68.829 33.1605C68.829 32.128 69.1037 31.0954 69.6474 30.1123V30.1178ZM88.7937 30.1178C89.3374 29.1401 90.0459 28.3218 90.9686 27.7231C91.8913 27.1244 92.8744 26.8553 93.9619 26.8553C95.1043 26.8553 96.1369 27.1299 97.1695 27.7231C98.1471 28.2668 98.9105 29.0303 99.5092 30.0079C100.108 30.9855 100.377 32.0181 100.377 33.1605C100.377 34.3029 100.102 35.4453 99.5092 36.368C98.9105 37.2358 98.1471 37.9443 97.1695 38.3782C96.1918 38.867 95.1593 39.0867 94.1212 39.0867C92.4351 39.0867 91.0235 38.543 89.7713 37.5104C88.574 36.4779 87.9753 35.0059 87.9753 33.1605C87.9753 32.128 88.2499 31.0954 88.7937 30.1123V30.1178Z" fill="#1A1A18"/>
</g>
<defs>
<clipPath id="clip0_197_36586">
<rect width="144.811" height="65.7981" fill="white" transform="translate(0.191406 0.90918)"/>
</clipPath>
</defs>
</svg>
