<svg width="18" height="16" viewBox="0 0 18 16" fill="none" xmlns="http://www.w3.org/2000/svg">
<path d="M14.8462 0.5H3.15385C2.58311 0.501649 2.03621 0.732647 1.63264 1.14253C1.22907 1.5524 1.00162 2.10785 1 2.6875V10.1875C1.00162 10.7672 1.22907 11.3226 1.63264 11.7325C2.03621 12.1424 2.58311 12.3734 3.15385 12.375H4.69231V15.5L8.29692 12.4477C8.35228 12.4007 8.42211 12.375 8.49423 12.375H14.8462C15.4169 12.3734 15.9638 12.1424 16.3674 11.7325C16.7709 11.3226 16.9984 10.7672 17 10.1875V2.6875C16.9984 2.10785 16.7709 1.5524 16.3674 1.14253C15.9638 0.732647 15.4169 0.501649 14.8462 0.5Z" stroke="#004E9F" stroke-linejoin="round"/>
</svg>
