<svg width="62" height="62" viewBox="0 0 62 62" fill="none" xmlns="http://www.w3.org/2000/svg">
<path d="M54.25 31C54.25 18.1641 43.8359 7.75 31 7.75C18.1641 7.75 7.75 18.1641 7.75 31C7.75 43.8359 18.1641 54.25 31 54.25C43.8359 54.25 54.25 43.8359 54.25 31Z" stroke="white" stroke-miterlimit="10"/>
<path d="M35.8438 42.625H39.2344C40.1336 42.625 40.996 42.2678 41.6319 41.6319C42.2678 40.996 42.625 40.1336 42.625 39.2344V35.8438M42.625 26.1562V22.7656C42.625 21.8664 42.2678 21.004 41.6319 20.3681C40.996 19.7322 40.1336 19.375 39.2344 19.375H35.8438M26.1562 42.625H22.7656C21.8664 42.625 21.004 42.2678 20.3681 41.6319C19.7322 40.996 19.375 40.1336 19.375 39.2344V35.8438M19.375 26.1562V22.7656C19.375 21.8664 19.7322 21.004 20.3681 20.3681C21.004 19.7322 21.8664 19.375 22.7656 19.375H26.1562" stroke="white" stroke-linecap="round" stroke-linejoin="round"/>
</svg>
