<svg width="49" height="49" viewBox="0 0 49 49" fill="none" xmlns="http://www.w3.org/2000/svg">
<g id="Telegram">
<path id="Combined-Shape" d="M24.5 0.179688C37.7548 0.179688 48.5 10.9249 48.5 24.1797C48.5 37.4345 37.7548 48.1797 24.5 48.1797C11.2452 48.1797 0.5 37.4345 0.5 24.1797C0.5 10.9249 11.2452 0.179688 24.5 0.179688ZM36.292 16.6299C36.6949 15.014 35.6759 14.2814 34.6201 14.7607L11.502 23.6748C9.92427 24.3077 9.93375 25.1878 11.2148 25.5801L17.1475 27.4316L30.8818 18.7666C31.5302 18.3735 32.1251 18.5851 31.6367 19.0186L20.5078 29.0615H20.5088L20.0996 35.1797C20.6994 35.1797 20.965 34.9056 21.2998 34.5801L24.1826 31.7764L30.1797 36.207C31.2834 36.816 32.0805 36.501 32.3555 35.1826L36.292 16.6299Z" fill="white"/>
</g>
</svg>
