<svg width="49" height="49" viewBox="0 0 49 49" fill="none" xmlns="http://www.w3.org/2000/svg">
<g id="VK">
<path id="Combined-Shape" d="M24.5 0.179688C37.7548 0.179688 48.5 10.9249 48.5 24.1797C48.5 37.4345 37.7548 48.1797 24.5 48.1797C11.2452 48.1797 0.5 37.4345 0.5 24.1797C0.5 10.9249 11.2452 0.179688 24.5 0.179688ZM24.0098 17.7832C22.6366 17.7697 21.475 17.7878 20.8164 18.1035C20.3782 18.3137 20.0397 18.7834 20.2461 18.8105C20.5003 18.8437 21.0763 18.963 21.3818 19.3711C21.7728 19.8941 21.7629 21.0609 21.7627 21.0801C21.7627 21.0801 21.9887 24.3398 21.2324 24.7441C20.7141 25.0214 20.003 24.4547 18.4746 21.8633C17.692 20.5359 17.1006 19.0684 17.1006 19.0684C17.0977 19.0616 16.9847 18.7921 16.7832 18.6465C16.5414 18.4718 16.2055 18.4152 16.1924 18.4131L12.5342 18.4365C12.5177 18.437 11.9817 18.4554 11.7832 18.6865C11.6054 18.8934 11.768 19.3211 11.7695 19.3252C11.7695 19.3252 14.633 25.902 17.876 29.2168C20.8497 32.255 24.2256 32.0557 24.2256 32.0557H25.7559C25.7712 32.0539 26.2215 32.0011 26.4541 31.7559C26.6707 31.5273 26.6631 31.0957 26.6631 31.0957C26.6628 31.0742 26.6396 29.0804 27.5869 28.7842C28.526 28.4917 29.7321 30.7322 31.0117 31.5938C31.969 32.2388 32.6979 32.1052 32.7119 32.1025L36.1318 32.0557C36.1561 32.0541 37.9139 31.938 37.0723 30.5674C37.0022 30.4543 36.5773 29.5462 34.5303 27.6807C32.3855 25.7278 32.6734 26.0433 35.2549 22.665C36.8275 20.6076 37.4563 19.3506 37.2598 18.8135C37.0728 18.3002 35.916 18.4365 35.916 18.4365L32.0674 18.46C32.0674 18.46 31.7819 18.4219 31.5703 18.5459C31.3675 18.6653 31.2343 18.941 31.2295 18.9512C31.2295 18.9512 30.6212 20.5431 29.8086 21.8975C28.0947 24.7535 27.4094 24.9054 27.1289 24.7285C26.4766 24.3144 26.6396 23.0668 26.6396 22.1807C26.6396 19.4116 27.0675 18.2576 25.8066 17.959C25.3885 17.8594 25.0803 17.7943 24.0098 17.7832Z" fill="white"/>
</g>
</svg>
