<svg width="25" height="25" viewBox="0 0 25 25" fill="none" xmlns="http://www.w3.org/2000/svg">
<g id="add-circle-outline">
<path id="Vector (Stroke)" fill-rule="evenodd" clip-rule="evenodd" d="M2.75 12.5C2.75 7.11704 7.11704 2.75 12.5 2.75C17.883 2.75 22.25 7.11704 22.25 12.5C22.25 17.883 17.883 22.25 12.5 22.25C7.11704 22.25 2.75 17.883 2.75 12.5ZM12.5 4.25C7.94546 4.25 4.25 7.94546 4.25 12.5C4.25 17.0545 7.94546 20.75 12.5 20.75C17.0545 20.75 20.75 17.0545 20.75 12.5C20.75 7.94546 17.0545 4.25 12.5 4.25Z" fill="black"/>
<path id="Vector (Stroke)_2" fill-rule="evenodd" clip-rule="evenodd" d="M12.5 8C12.9142 8 13.25 8.33579 13.25 8.75V11.75H16.25C16.6642 11.75 17 12.0858 17 12.5C17 12.9142 16.6642 13.25 16.25 13.25H13.25V16.25C13.25 16.6642 12.9142 17 12.5 17C12.0858 17 11.75 16.6642 11.75 16.25V13.25H8.75C8.33579 13.25 8 12.9142 8 12.5C8 12.0858 8.33579 11.75 8.75 11.75H11.75V8.75C11.75 8.33579 12.0858 8 12.5 8Z" fill="black"/>
</g>
</svg>
