<svg width="122" height="122" viewBox="0 0 122 122" fill="none" xmlns="http://www.w3.org/2000/svg">
<g id="Frame 996">
<circle id="Ellipse 171" cx="61" cy="61" r="61" fill="url(#paint0_linear_1_7676)"/>
<g id="Group 803">
<path id="Ellipse 175 (Stroke)" fill-rule="evenodd" clip-rule="evenodd" d="M61 89.5714C76.7796 89.5714 89.5714 76.7796 89.5714 61C89.5714 45.2204 76.7796 32.4286 61 32.4286C45.2204 32.4286 32.4286 45.2204 32.4286 61C32.4286 76.7796 45.2204 89.5714 61 89.5714ZM61 91C77.5685 91 91 77.5685 91 61C91 44.4315 77.5685 31 61 31C44.4315 31 31 44.4315 31 61C31 77.5685 44.4315 91 61 91Z" fill="white"/>
<g id="Mask group">
<mask id="mask0_1_7676" style="mask-type:alpha" maskUnits="userSpaceOnUse" x="32" y="32" width="58" height="58">
<path id="Ellipse 176" d="M89.5725 61.0011C89.5725 76.7807 76.7807 89.5725 61.0011 89.5725C45.2216 89.5725 32.4297 76.7807 32.4297 61.0011C32.4297 45.2216 45.2216 32.4297 61.0011 32.4297C76.7807 32.4297 89.5725 45.2216 89.5725 61.0011Z" fill="white"/>
</mask>
<g mask="url(#mask0_1_7676)">
<path id="Vector 89 (Stroke)" fill-rule="evenodd" clip-rule="evenodd" d="M79.0595 38.827C63.448 43.4526 48.2298 40.0442 43.5794 38.0862L44.1338 36.7695C48.5309 38.621 63.408 41.9745 78.6537 37.4573L79.0595 38.827ZM85.7089 45.1457C71.8318 55.371 50.796 53.1311 36.3695 45.1966L37.0579 43.9448C51.2029 51.7245 71.5956 53.7704 84.8614 43.9957L85.7089 45.1457ZM64.3171 62.4277C55.1215 62.6098 44.9897 59.5113 32.7801 52.3292L33.5044 51.0979C45.5806 58.2015 55.4488 61.1745 64.2889 60.9994C73.1202 60.8245 81.0203 57.506 89.163 51.8415L89.9788 53.0142C81.6929 58.7783 73.5216 62.2454 64.3171 62.4277ZM63.9725 72.7845C54.2481 73.148 43.5782 70.2356 31.3516 63.0435L32.0759 61.8122C44.135 68.9058 54.5364 71.7077 63.9192 71.3569C73.2998 71.0062 81.7411 67.5014 89.8772 61.8415L90.6931 63.0142C82.4006 68.7828 73.6991 72.4209 63.9725 72.7845ZM61.6044 82.6954C51.9527 82.4248 42.196 79.9011 34.9409 75.9109L35.6294 74.6591C42.6601 78.526 52.1891 81.0023 61.6445 81.2674C71.1076 81.5327 80.393 79.5814 87.0043 74.7099L87.8517 75.86C80.8916 80.9886 71.2484 82.9658 61.6044 82.6954Z" fill="white"/>
</g>
</g>
</g>
</g>
<defs>
<linearGradient id="paint0_linear_1_7676" x1="116.25" y1="101.75" x2="13.75" y2="24.75" gradientUnits="userSpaceOnUse">
<stop stop-color="#4392E3"/>
<stop offset="1" stop-color="#004E9F"/>
</linearGradient>
</defs>
</svg>
