<svg width="123" height="122" viewBox="0 0 123 122" fill="none" xmlns="http://www.w3.org/2000/svg">
<g id="Frame 993">
<circle id="Ellipse 172" cx="61.0234" cy="61" r="61" fill="black"/>
<g id="Group 805">
<path id="Ellipse 178 (Stroke)" fill-rule="evenodd" clip-rule="evenodd" d="M61.3988 89.1258C76.5869 89.1258 88.8992 76.8134 88.8992 61.6254C88.8992 46.4374 76.5869 34.125 61.3988 34.125C46.2108 34.125 33.8985 46.4374 33.8985 61.6254C33.8985 76.8134 46.2108 89.1258 61.3988 89.1258ZM61.3988 90.5008C77.3463 90.5008 90.2743 77.5729 90.2743 61.6254C90.2743 45.678 77.3463 32.75 61.3988 32.75C45.4514 32.75 32.5234 45.678 32.5234 61.6254C32.5234 77.5729 45.4514 90.5008 61.3988 90.5008Z" fill="white"/>
<path id="Rectangle 4223 (Stroke)" fill-rule="evenodd" clip-rule="evenodd" d="M37.9742 85.5279L34.5498 81.9564C33.5505 80.9141 31.8954 80.8793 30.8531 81.8786C29.8108 82.8779 29.776 84.533 30.7754 85.5753L34.1998 89.1469C35.1991 90.1891 36.8542 90.224 37.8964 89.2246C38.9387 88.2253 38.9736 86.5702 37.9742 85.5279ZM35.5423 81.0047C34.0174 79.4143 31.4919 79.3612 29.9015 80.8861C28.3111 82.411 28.2579 84.9365 29.7828 86.5269L33.2072 90.0985C34.7321 91.6889 37.2576 91.7421 38.8481 90.2171C40.4385 88.6922 40.4916 86.1668 38.9667 84.5763L35.5423 81.0047Z" fill="white"/>
<path id="Rectangle 4224 (Stroke)" fill-rule="evenodd" clip-rule="evenodd" d="M87.8488 24.7239L87.644 24.5104C85.7556 22.5408 82.6281 22.475 80.6585 24.3634C78.6889 26.2518 78.6231 29.3794 80.5115 31.3489L80.7163 31.5625C82.6047 33.5321 85.7322 33.5979 87.7018 31.7095C89.6714 29.821 89.7372 26.6935 87.8488 24.7239ZM88.6365 23.5588C86.2225 21.041 82.2246 20.9569 79.7069 23.3709C77.1891 25.7849 77.105 29.7828 79.519 32.3006L79.7238 32.5141C82.1378 35.0319 86.1357 35.116 88.6534 32.702C91.1712 30.288 91.2553 26.29 88.8413 23.7723L88.6365 23.5588Z" fill="white"/>
<g id="Mask group">
<mask id="mask0_1_7706" style="mask-type:alpha" maskUnits="userSpaceOnUse" x="28" y="36" width="77" height="49">
<g id="Group 797">
<path id="Rectangle 4215 (Stroke)" fill-rule="evenodd" clip-rule="evenodd" d="M54.5237 38.25H40.7735C38.4953 38.25 36.6485 40.0969 36.6485 42.3751C36.6485 44.6533 38.4953 46.5001 40.7735 46.5001H54.5237C56.8019 46.5001 58.6488 44.6533 58.6488 42.3751C58.6488 40.0969 56.8019 38.25 54.5237 38.25ZM40.7735 36.875C37.7359 36.875 35.2734 39.3375 35.2734 42.3751C35.2734 45.4127 37.7359 47.8752 40.7735 47.8752H54.5237C57.5613 47.8752 60.0238 45.4127 60.0238 42.3751C60.0238 39.3375 57.5613 36.875 54.5237 36.875H40.7735Z" fill="black"/>
<path id="Rectangle 4216 (Stroke)" fill-rule="evenodd" clip-rule="evenodd" d="M53.1488 53.375H32.5235C31.7641 53.375 31.1485 53.9906 31.1485 54.75C31.1485 55.5094 31.7641 56.1251 32.5235 56.1251H53.1488C53.9082 56.1251 54.5238 55.5094 54.5238 54.75C54.5238 53.9906 53.9082 53.375 53.1488 53.375ZM32.5235 52C31.0047 52 29.7734 53.2312 29.7734 54.75C29.7734 56.2688 31.0047 57.5001 32.5235 57.5001H53.1488C54.6676 57.5001 55.8988 56.2688 55.8988 54.75C55.8988 53.2312 54.6676 52 53.1488 52H32.5235Z" fill="black"/>
<path id="Rectangle 4217 (Stroke)" fill-rule="evenodd" clip-rule="evenodd" d="M49.7112 63H33.211C31.3125 63 29.7735 64.5391 29.7735 66.4376C29.7735 68.3361 31.3125 69.8751 33.211 69.8751H49.7112C51.6097 69.8751 53.1488 68.3361 53.1488 66.4376C53.1488 64.5391 51.6097 63 49.7112 63ZM33.211 61.625C30.5531 61.625 28.3984 63.7797 28.3984 66.4376C28.3984 69.0955 30.5531 71.2501 33.211 71.2501H49.7112C52.3691 71.2501 54.5238 69.0955 54.5238 66.4376C54.5238 63.7797 52.3691 61.625 49.7112 61.625H33.211Z" fill="black"/>
<path id="Rectangle 4218 (Stroke)" fill-rule="evenodd" clip-rule="evenodd" d="M51.7737 78.125H33.8985C32.3797 78.125 31.1485 79.3563 31.1485 80.8751C31.1485 82.3939 32.3797 83.6251 33.8985 83.6251H51.7737C53.2926 83.6251 54.5238 82.3939 54.5238 80.8751C54.5238 79.3563 53.2926 78.125 51.7737 78.125ZM33.8985 76.75C31.6203 76.75 29.7734 78.5969 29.7734 80.8751C29.7734 83.1533 31.6203 85.0001 33.8985 85.0001H51.7737C54.052 85.0001 55.8988 83.1533 55.8988 80.8751C55.8988 78.5969 54.052 76.75 51.7737 76.75H33.8985Z" fill="black"/>
<path id="Rectangle 4219 (Stroke)" fill-rule="evenodd" clip-rule="evenodd" d="M83.3987 78.125H65.5235C64.0047 78.125 62.7735 79.3563 62.7735 80.8751C62.7735 82.3939 64.0047 83.6251 65.5235 83.6251H83.3987C84.9176 83.6251 86.1488 82.3939 86.1488 80.8751C86.1488 79.3563 84.9176 78.125 83.3987 78.125ZM65.5235 76.75C63.2453 76.75 61.3984 78.5969 61.3984 80.8751C61.3984 83.1533 63.2453 85.0001 65.5235 85.0001H83.3987C85.677 85.0001 87.5238 83.1533 87.5238 80.8751C87.5238 78.5969 85.677 76.75 83.3987 76.75H65.5235Z" fill="black"/>
<path id="Rectangle 4220 (Stroke)" fill-rule="evenodd" clip-rule="evenodd" d="M90.9613 63H67.586C65.6875 63 64.1485 64.5391 64.1485 66.4376C64.1485 68.3361 65.6875 69.8751 67.586 69.8751H90.9613C92.8598 69.8751 94.3989 68.3361 94.3989 66.4376C94.3989 64.5391 92.8598 63 90.9613 63ZM67.586 61.625C64.9281 61.625 62.7734 63.7797 62.7734 66.4376C62.7734 69.0955 64.9281 71.2501 67.586 71.2501H90.9613C93.6192 71.2501 95.7739 69.0955 95.7739 66.4376C95.7739 63.7797 93.6192 61.625 90.9613 61.625H67.586Z" fill="black"/>
<path id="Rectangle 4221 (Stroke)" fill-rule="evenodd" clip-rule="evenodd" d="M101.274 53.375H75.1485C74.3891 53.375 73.7735 53.9906 73.7735 54.75C73.7735 55.5094 74.3891 56.1251 75.1485 56.1251H101.274C102.033 56.1251 102.649 55.5094 102.649 54.75C102.649 53.9906 102.033 53.375 101.274 53.375ZM75.1485 52C73.6297 52 72.3984 53.2312 72.3984 54.75C72.3984 56.2688 73.6297 57.5001 75.1485 57.5001H101.274C102.793 57.5001 104.024 56.2688 104.024 54.75C104.024 53.2312 102.793 52 101.274 52H75.1485Z" fill="black"/>
<path id="Rectangle 4222 (Stroke)" fill-rule="evenodd" clip-rule="evenodd" d="M97.1488 38.25H76.5235C74.2453 38.25 72.3985 40.0969 72.3985 42.3751C72.3985 44.6533 74.2453 46.5001 76.5235 46.5001H97.1488C99.427 46.5001 101.274 44.6533 101.274 42.3751C101.274 40.0969 99.427 38.25 97.1488 38.25ZM76.5235 36.875C73.4859 36.875 71.0234 39.3375 71.0234 42.3751C71.0234 45.4127 73.4859 47.8752 76.5235 47.8752H97.1488C100.186 47.8752 102.649 45.4127 102.649 42.3751C102.649 39.3375 100.186 36.875 97.1488 36.875H76.5235Z" fill="black"/>
</g>
</mask>
<g mask="url(#mask0_1_7706)">
<path id="Ellipse 177" d="M88.8992 61.6254C88.8992 76.8134 76.5869 89.1258 61.3988 89.1258C46.2108 89.1258 33.8984 76.8134 33.8984 61.6254C33.8984 46.4373 46.2108 34.125 61.3988 34.125C76.5869 34.125 88.8992 46.4373 88.8992 61.6254Z" fill="white"/>
</g>
</g>
</g>
</g>
</svg>
