<svg width="122" height="122" viewBox="0 0 122 122" fill="none" xmlns="http://www.w3.org/2000/svg">
<g id="Frame 995">
<circle id="Ellipse 172" cx="61.0078" cy="61" r="61" fill="url(#paint0_linear_1_7685)"/>
<g id="Group 801">
<path id="Ellipse 180 (Stroke)" fill-rule="evenodd" clip-rule="evenodd" d="M61.0078 89.5714C76.7874 89.5714 89.5792 76.7796 89.5792 61C89.5792 45.2204 76.7874 32.4286 61.0078 32.4286C45.2282 32.4286 32.4364 45.2204 32.4364 61C32.4364 76.7796 45.2282 89.5714 61.0078 89.5714ZM61.0078 91C77.5764 91 91.0078 77.5685 91.0078 61C91.0078 44.4315 77.5764 31 61.0078 31C44.4393 31 31.0078 44.4315 31.0078 61C31.0078 77.5685 44.4393 91 61.0078 91Z" fill="white"/>
<g id="Mask group">
<mask id="mask0_1_7685" style="mask-type:alpha" maskUnits="userSpaceOnUse" x="32" y="32" width="58" height="58">
<path id="Ellipse 181" d="M89.5804 61.0011C89.5804 76.7807 76.7885 89.5725 61.0089 89.5725C45.2294 89.5725 32.4375 76.7807 32.4375 61.0011C32.4375 45.2216 45.2294 32.4297 61.0089 32.4297C76.7885 32.4297 89.5804 45.2216 89.5804 61.0011Z" fill="white"/>
</mask>
<g mask="url(#mask0_1_7685)">
<g id="Group 798">
<path id="Vector 90 (Stroke)" fill-rule="evenodd" clip-rule="evenodd" d="M47.202 37.5313C46.1444 37.5046 45.2227 37.4814 44.5288 37.4283L44.6377 36.0039C45.2919 36.0539 46.1698 36.0761 47.2336 36.103C47.4066 36.1074 47.5845 36.1119 47.7672 36.1167C49.0617 36.1504 50.5698 36.1972 52.1824 36.3092C55.4 36.5326 59.0737 37.0179 62.3492 38.2018C65.3983 39.3037 69.1699 39.4851 72.4471 39.1998C74.0791 39.0578 75.5674 38.8017 76.7566 38.497C77.9755 38.1847 78.7935 37.8425 79.1564 37.572L80.0101 38.7174C79.4083 39.166 78.3552 39.5621 77.1112 39.8809C75.8375 40.2073 74.2711 40.475 72.571 40.623C69.184 40.9179 65.182 40.7446 61.8636 39.5453C58.7719 38.4279 55.2517 37.9543 52.0834 37.7343C50.503 37.6246 49.0202 37.5784 47.73 37.5448C47.5506 37.5401 47.3745 37.5356 47.202 37.5313ZM77.0448 52.0556C72.613 53.3184 67.1043 53.6239 61.171 51.7811C51.8896 48.8983 40.8632 48.6213 34.6912 49.565L34.4753 48.1529C40.845 47.1789 52.0912 47.4651 61.5947 50.4168C67.2385 52.1697 72.4626 51.8759 76.6533 50.6817C80.8646 49.4816 83.979 47.389 85.431 45.6129L86.537 46.517C84.8536 48.5763 81.4559 50.7986 77.0448 52.0556ZM68.7254 58.7589C66.4575 58.97 64.3205 58.8694 62.5872 58.243C53.9448 55.1195 43.5881 55.6139 36.0367 55.9743C34.7578 56.0354 33.5593 56.0926 32.4633 56.1277L32.4175 54.6999C33.4768 54.6659 34.6481 54.6093 35.9083 54.5485C43.4352 54.185 54.1329 53.6684 63.0728 56.8995C64.5232 57.4236 66.42 57.5388 68.593 57.3364C70.7555 57.1351 73.1341 56.6251 75.5143 55.9492C80.2754 54.5972 84.9734 52.6014 87.8368 51.1784L88.4725 52.4577C85.5474 53.9114 80.7668 55.9427 75.9045 57.3234C73.473 58.0139 71.0037 58.5467 68.7254 58.7589ZM80.8606 64.073C75.4375 65.8624 68.3331 66.5876 60.4754 64.5504C45.174 60.5834 35.8404 62.1961 31.8897 63.1257L31.5625 61.7351C35.707 60.7599 45.2782 59.1346 60.8339 63.1675C68.4048 65.1304 75.229 64.4269 80.413 62.7164C83.0062 61.8607 85.18 60.7559 86.826 59.6156C88.4876 58.4644 89.5565 57.3153 90.0158 56.3967L91.2935 57.0356C90.6814 58.2598 89.3932 59.5749 87.6396 60.7899C85.8704 62.0156 83.571 63.1787 80.8606 64.073ZM81.8765 71.3296C77.1241 72.7354 70.7286 73.1506 63.3738 71.7027C49.3648 68.9447 39.2815 69.5819 33.318 70.9829L32.9913 69.5922C39.1892 68.1361 49.4819 67.5118 63.6498 70.301C70.808 71.7102 76.9674 71.292 81.4713 69.9597C83.7244 69.2933 85.5451 68.4035 86.8682 67.416C88.1985 66.4231 88.9791 65.3682 89.252 64.3826L90.6288 64.7639C90.2423 66.1593 89.2037 67.4555 87.7227 68.5609C86.2345 69.6716 84.2516 70.6271 81.8765 71.3296ZM86.4996 78.639C83.3421 81.9331 74.7931 85.987 63.3386 83.1234C56.2532 81.352 50.4139 80.8221 46.2645 80.7338C44.1898 80.6897 42.5365 80.7559 41.3598 80.8329C40.7713 80.8714 40.301 80.9126 39.9539 80.9444C39.9021 80.9492 39.8513 80.9539 39.802 80.9585C39.5503 80.982 39.3369 81.0018 39.2261 81.0018V79.5733C39.2251 79.5733 39.2273 79.5732 39.2336 79.573C39.2405 79.5727 39.2524 79.5721 39.2706 79.5708C39.3026 79.5687 39.3444 79.5654 39.398 79.5607C39.4697 79.5545 39.5545 79.5467 39.6554 79.5373C39.7071 79.5326 39.763 79.5274 39.8236 79.5218C40.1769 79.4895 40.6608 79.447 41.2665 79.4074C42.4782 79.3281 44.1731 79.2604 46.2949 79.3056C50.5383 79.3958 56.4847 79.9374 63.6851 81.7374C74.6807 84.4863 82.6921 80.5468 85.4683 77.6504L86.4996 78.639Z" fill="white"/>
<path id="Rectangle 4225 (Stroke)" fill-rule="evenodd" clip-rule="evenodd" d="M72.7946 76.0028H62.7946C62.0057 76.0028 61.3661 76.6424 61.3661 77.4314C61.3661 78.2203 62.0057 78.8599 62.7946 78.8599H72.7946C73.5836 78.8599 74.2232 78.2203 74.2232 77.4314C74.2232 76.6424 73.5836 76.0028 72.7946 76.0028ZM62.7946 74.5742C61.2167 74.5742 59.9375 75.8534 59.9375 77.4314C59.9375 79.0093 61.2167 80.2885 62.7946 80.2885H72.7946C74.3726 80.2885 75.6518 79.0093 75.6518 77.4314C75.6518 75.8534 74.3726 74.5742 72.7946 74.5742H62.7946Z" fill="white"/>
<path id="Rectangle 4226 (Stroke)" fill-rule="evenodd" clip-rule="evenodd" d="M48.5145 43.8566C48.5145 45.0401 49.4739 45.9994 50.6574 45.9994C51.8408 45.9994 52.8002 45.0401 52.8002 43.8566C52.8002 42.6731 51.8408 41.7137 50.6574 41.7137C49.4739 41.7137 48.5145 42.6731 48.5145 43.8566ZM50.6574 40.2852C48.6849 40.2852 47.0859 41.8841 47.0859 43.8566C47.0859 45.829 48.6849 47.428 50.6574 47.428C52.6298 47.428 54.2288 45.829 54.2288 43.8566C54.2288 41.8841 52.6298 40.2852 50.6574 40.2852Z" fill="white"/>
</g>
</g>
</g>
</g>
</g>
<defs>
<linearGradient id="paint0_linear_1_7685" x1="116.258" y1="101.75" x2="13.7578" y2="24.75" gradientUnits="userSpaceOnUse">
<stop stop-color="#7B61FF"/>
<stop offset="1" stop-color="#3B1ECA"/>
</linearGradient>
</defs>
</svg>
