<svg width="123" height="122" viewBox="0 0 123 122" fill="none" xmlns="http://www.w3.org/2000/svg">
<g id="Frame 994">
<circle id="Ellipse 173" cx="61.0391" cy="61" r="61" fill="black"/>
<g id="Group 802">
<path id="Ellipse 179 (Stroke)" fill-rule="evenodd" clip-rule="evenodd" d="M61.0391 89.5714C76.8186 89.5714 89.6105 76.7796 89.6105 61C89.6105 45.2204 76.8186 32.4286 61.0391 32.4286C45.2595 32.4286 32.4676 45.2204 32.4676 61C32.4676 76.7796 45.2595 89.5714 61.0391 89.5714ZM61.0391 91C77.6076 91 91.0391 77.5685 91.0391 61C91.0391 44.4315 77.6076 31 61.0391 31C44.4705 31 31.0391 44.4315 31.0391 61C31.0391 77.5685 44.4705 91 61.0391 91Z" fill="white"/>
<g id="Mask group">
<mask id="mask0_1_7725" style="mask-type:alpha" maskUnits="userSpaceOnUse" x="32" y="32" width="58" height="58">
<path id="Ellipse 178" d="M89.6116 61.0011C89.6116 76.7807 76.8197 89.5725 61.0402 89.5725C45.2606 89.5725 32.4688 76.7807 32.4688 61.0011C32.4688 45.2216 45.2606 32.4297 61.0402 32.4297C76.8197 32.4297 89.6116 45.2216 89.6116 61.0011Z" fill="white"/>
</mask>
<g mask="url(#mask0_1_7725)">
<g id="Group 800">
<g id="Group 799">
<path id="Ellipse 182 (Stroke)" fill-rule="evenodd" clip-rule="evenodd" d="M43.1808 64.5698C44.3643 64.5698 45.3237 63.6104 45.3237 62.4269C45.3237 61.2434 44.3643 60.284 43.1808 60.284C41.9973 60.284 41.0379 61.2434 41.0379 62.4269C41.0379 63.6104 41.9973 64.5698 43.1808 64.5698ZM43.1808 65.9983C45.1532 65.9983 46.7522 64.3993 46.7522 62.4269C46.7522 60.4545 45.1532 58.8555 43.1808 58.8555C41.2084 58.8555 39.6094 60.4545 39.6094 62.4269C39.6094 64.3993 41.2084 65.9983 43.1808 65.9983Z" fill="white"/>
<path id="Ellipse 183 (Stroke)" fill-rule="evenodd" clip-rule="evenodd" d="M61.7511 81.7143C62.9346 81.7143 63.894 80.7549 63.894 79.5714C63.894 78.388 62.9346 77.4286 61.7511 77.4286C60.5676 77.4286 59.6083 78.388 59.6083 79.5714C59.6083 80.7549 60.5676 81.7143 61.7511 81.7143ZM61.7511 83.1429C63.7236 83.1429 65.3225 81.5439 65.3225 79.5714C65.3225 77.599 63.7236 76 61.7511 76C59.7787 76 58.1797 77.599 58.1797 79.5714C58.1797 81.5439 59.7787 83.1429 61.7511 83.1429Z" fill="white"/>
<path id="Ellipse 184 (Stroke)" fill-rule="evenodd" clip-rule="evenodd" d="M81.7511 61.7143C82.9346 61.7143 83.894 60.7549 83.894 59.5714C83.894 58.388 82.9346 57.4286 81.7511 57.4286C80.5676 57.4286 79.6083 58.388 79.6083 59.5714C79.6083 60.7549 80.5676 61.7143 81.7511 61.7143ZM81.7511 63.1429C83.7236 63.1429 85.3225 61.5439 85.3225 59.5714C85.3225 57.599 83.7236 56 81.7511 56C79.7787 56 78.1797 57.599 78.1797 59.5714C78.1797 61.5439 79.7787 63.1429 81.7511 63.1429Z" fill="white"/>
<path id="Ellipse 185 (Stroke)" fill-rule="evenodd" clip-rule="evenodd" d="M60.3214 41.7143C61.5049 41.7143 62.4643 40.7549 62.4643 39.5714C62.4643 38.388 61.5049 37.4286 60.3214 37.4286C59.138 37.4286 58.1786 38.388 58.1786 39.5714C58.1786 40.7549 59.138 41.7143 60.3214 41.7143ZM60.3214 43.1429C62.2939 43.1429 63.8929 41.5439 63.8929 39.5714C63.8929 37.599 62.2939 36 60.3214 36C58.349 36 56.75 37.599 56.75 39.5714C56.75 41.5439 58.349 43.1429 60.3214 43.1429Z" fill="white"/>
<path id="Vector 91 (Stroke)" fill-rule="evenodd" clip-rule="evenodd" d="M63.9631 33.7744C63.0134 33.2725 62.1326 32.807 61.3672 32.315L62.1397 31.1133C62.7904 31.5316 63.5849 31.9494 64.4722 32.416C67.89 34.2132 72.6859 36.7352 75.9538 42.8041C77.8857 46.392 80.8319 49.1733 83.5814 51.1522C86.335 53.1341 88.8426 54.2766 89.8365 54.6079L89.3847 55.9632C88.2357 55.5802 85.6005 54.3656 82.7469 52.3117C79.8893 50.255 76.764 47.322 74.696 43.4813C71.6592 37.8417 67.3681 35.5739 63.9631 33.7744Z" fill="white"/>
<path id="Vector 92 (Stroke)" fill-rule="evenodd" clip-rule="evenodd" d="M45.9305 40.8269C44.2321 39.9518 42.8415 39.2354 42.0781 38.7447L42.8506 37.543C43.5515 37.9936 44.8705 38.6734 46.5946 39.562C46.8288 39.6826 47.0703 39.8072 47.3189 39.9355C49.374 40.9966 51.8554 42.294 54.3607 43.7594C56.8644 45.2238 59.4067 46.8646 61.5821 48.6165C63.7486 50.3614 65.5986 52.2539 66.6647 54.2337C67.602 55.9744 69.3172 57.8165 71.4551 59.6279C73.5831 61.4308 76.0835 63.165 78.5392 64.6987C83.4706 67.7786 88.1281 69.9931 89.1188 70.3233L88.6671 71.6786C87.5149 71.2945 82.7439 69.009 77.7824 65.9104C75.2916 64.3547 72.7296 62.5801 70.5317 60.7178C68.3437 58.864 66.4696 56.8846 65.4069 54.911C64.473 53.1766 62.7932 51.4262 60.686 49.7291C58.5876 48.0391 56.112 46.4388 53.6395 44.9925C51.1686 43.5472 48.7154 42.2643 46.6635 41.2048C46.4137 41.0759 46.169 40.9498 45.9305 40.8269Z" fill="white"/>
<path id="Vector 93 (Stroke)" fill-rule="evenodd" clip-rule="evenodd" d="M48.9574 57.8234C44.1553 54.5926 38.6318 52.0306 33.7422 50.9828L34.0415 49.5859C39.1519 50.681 44.8427 53.3333 49.7549 56.6382C54.6566 59.936 58.871 63.943 60.9493 67.8029C62.8563 71.3445 67.1814 74.8331 71.4043 77.5593C75.6126 80.276 79.5555 82.1336 80.5463 82.4639L80.0945 83.8191C78.9425 83.4351 74.8854 81.507 70.6294 78.7595C66.3881 76.0213 61.7845 72.3671 59.6915 68.4802C57.7699 64.9114 53.77 61.0613 48.9574 57.8234Z" fill="white"/>
<path id="Vector 94 (Stroke)" fill-rule="evenodd" clip-rule="evenodd" d="M51.2134 77.8966C46.2497 72.2238 41.3609 67.3433 31.5547 64.5416L31.9471 63.168C42.141 66.0805 47.2521 71.2 52.2885 76.9558C53.6423 78.5031 54.912 79.9956 56.0974 81.389C57.3747 82.8904 58.5542 84.277 59.6359 85.4933C60.6682 86.654 61.5797 87.6226 62.3582 88.3411C63.1594 89.0806 63.7418 89.4798 64.1196 89.6057L63.6679 90.961C62.9743 90.7298 62.1976 90.1369 61.3893 89.3909C60.5582 88.6238 59.6096 87.6133 58.5685 86.4427C57.495 85.2357 56.2887 83.8181 54.9915 82.2938C53.7981 80.8915 52.5278 79.3988 51.2134 77.8966Z" fill="white"/>
</g>
</g>
</g>
</g>
</g>
</g>
</svg>
