<svg width="123" height="122" viewBox="0 0 123 122" fill="none" xmlns="http://www.w3.org/2000/svg">
<g id="Frame 992">
<circle id="Ellipse 171" cx="61.0156" cy="61" r="61" fill="url(#paint0_linear_1_7697)"/>
<g id="Group 804">
<path id="Ellipse 174 (Stroke)" fill-rule="evenodd" clip-rule="evenodd" d="M61.3656 88.5851C76.9595 88.5851 89.6008 75.9438 89.6008 60.35C89.6008 44.7562 76.9595 32.1149 61.3656 32.1149C45.7718 32.1149 33.1305 44.7562 33.1305 60.35C33.1305 75.9438 45.7718 88.5851 61.3656 88.5851ZM61.3656 89.9969C77.7392 89.9969 91.0125 76.7235 91.0125 60.35C91.0125 43.9765 77.7392 30.7031 61.3656 30.7031C44.9921 30.7031 31.7188 43.9765 31.7188 60.35C31.7188 76.7235 44.9921 89.9969 61.3656 89.9969Z" fill="white"/>
<g id="Mask group">
<mask id="mask0_1_7697" style="mask-type:alpha" maskUnits="userSpaceOnUse" x="31" y="30" width="57" height="66">
<path id="Vector 85 (Stroke)" fill-rule="evenodd" clip-rule="evenodd" d="M76.7511 33.4394C76.6714 33.9996 76.4049 34.6688 75.7763 35.1161C74.9678 35.6914 73.8003 35.7338 72.2814 35.1262C71.3962 34.7722 70.9132 34.6573 70.5821 34.6789C70.3249 34.6957 70.0857 34.8003 69.7129 35.2104C69.3435 35.6168 68.9304 36.2238 68.3143 37.1289C68.2654 37.2007 68.2152 37.2745 68.1637 37.3501C67.4768 38.3584 66.5848 39.652 65.3361 41.2576C64.0644 42.8927 62.8929 43.8218 61.7597 44.1591C60.576 44.5114 59.5626 44.1832 58.7319 43.612C57.9319 43.0619 57.2551 42.2557 56.6904 41.5715C56.6699 41.5467 56.6496 41.5221 56.6295 41.4977C56.0522 40.798 55.6172 40.2707 55.2109 39.9998C54.9842 39.8487 54.7491 39.6816 54.5184 39.5176C54.4686 39.4822 54.4191 39.447 54.3698 39.4121C54.0871 39.2117 53.8081 39.0172 53.5278 38.8407C52.9565 38.481 52.441 38.237 51.9732 38.1701C51.5462 38.1091 51.134 38.1904 50.6999 38.5602C50.2344 38.9567 49.7145 39.7124 49.2046 41.0721C48.2546 43.6053 45.9731 45.1226 43.6591 46.0017C41.3342 46.8851 38.8465 47.1772 37.2496 47.1772C34.4126 47.1772 32.765 49.0514 32.4737 50.6553C32.3281 51.4569 32.5264 52.1084 32.9578 52.4964C33.3886 52.8838 34.2248 53.1639 35.6859 52.8392C39.1914 52.0602 41.733 53.6423 43.3474 55.5417C44.1499 56.4858 44.7359 57.5184 45.1225 58.4089C45.4968 59.2708 45.7213 60.0854 45.7213 60.587C45.7213 60.8558 45.7945 61.4476 45.9997 62.125C46.2043 62.8005 46.5202 63.4936 46.9627 64.01C47.3934 64.5126 47.9229 64.8283 48.6053 64.8446C49.3135 64.8614 50.3074 64.559 51.6508 63.5517C53.0635 62.4924 54.1779 61.7428 55.0953 61.3324C56.0245 60.9168 56.8845 60.7909 57.6845 61.191C58.4215 61.5595 58.9506 62.3078 59.4392 63.1741C59.7751 63.7696 60.1357 64.5069 60.5476 65.349C60.7444 65.7515 60.953 66.1779 61.1761 66.6243C61.5813 67.4346 61.7249 68.2193 61.5877 68.9636C61.4509 69.7059 61.0498 70.3263 60.5128 70.8373C59.4655 71.8341 57.7999 72.5108 56.0593 73.0016C54.294 73.4995 52.3386 73.8356 50.6217 74.0903C49.9785 74.1858 49.3762 74.2689 48.8288 74.3445C47.8874 74.4745 47.1086 74.5821 46.5644 74.6909C44.8762 75.0286 41.9627 76.0568 39.7535 77.5013C38.6462 78.2253 37.7786 79.0137 37.3066 79.8161C36.8555 80.5829 36.7698 81.343 37.1751 82.1536C37.3671 82.5377 37.8368 83.0539 38.6296 83.6758C39.4045 84.2836 40.4229 84.9427 41.6249 85.6281C44.0274 86.9978 47.1081 88.4408 50.312 89.7575C53.514 91.0734 56.8227 92.2564 59.6759 93.1091C62.557 93.9701 64.8936 94.4692 66.1906 94.4692C66.7833 94.4692 67.6136 94.2984 68.6337 93.9512C69.6427 93.6078 70.7936 93.1071 72.0127 92.484C74.4516 91.2375 77.1232 89.5216 79.4223 87.6564C81.7353 85.7797 83.6092 83.8015 84.5239 82.0441C84.9793 81.1692 85.1664 80.4068 85.1075 79.77C85.0513 79.1616 84.7647 78.5945 84.1101 78.0853C82.5981 76.9093 81.2507 76.3505 80.0654 76.1628C78.882 75.9754 77.8148 76.1508 76.8501 76.5126C75.8784 76.877 75.0119 77.4301 74.2413 77.9973C73.8977 78.2502 73.5797 78.501 73.2778 78.739C73.2409 78.7681 73.2042 78.7971 73.1677 78.8258C72.8404 79.0836 72.5209 79.3327 72.2292 79.5272C72.0375 79.655 71.8066 79.8349 71.5259 80.0583C71.4854 80.0905 71.4441 80.1235 71.4019 80.1571C71.1601 80.35 70.8919 80.564 70.6127 80.7728C69.9683 81.2547 69.185 81.7726 68.367 82.0013C67.5038 82.2428 66.5569 82.1684 65.7461 81.4061C64.9939 80.6989 64.4489 79.4774 64.0867 77.6665C63.7212 75.8391 63.7456 74.4192 64.1226 73.3272C64.5106 72.2033 65.2499 71.4918 66.1548 71.0659C67.0306 70.6537 68.0456 70.5157 69.014 70.4701C69.6661 70.4394 70.3529 70.4502 70.9886 70.4602C71.2857 70.4648 71.5716 70.4693 71.8376 70.4693C72.3015 70.4693 72.7274 70.4925 73.1059 70.5162C73.1725 70.5204 73.237 70.5245 73.2998 70.5285C73.6017 70.5478 73.8614 70.5644 74.1002 70.5687C74.6986 70.5794 74.9407 70.5 75.0787 70.3793C75.2201 70.2555 75.4184 69.9386 75.5023 69.026C75.5844 68.134 75.5457 66.8198 75.3699 64.8862C75.0063 60.8861 75.7248 58.5366 77.4126 56.7494C78.2283 55.8858 79.2416 55.185 80.369 54.4929C80.8549 54.1946 81.3718 53.8922 81.9088 53.578C81.9962 53.5269 82.0841 53.4755 82.1725 53.4238C82.807 53.0521 83.4725 52.6593 84.1693 52.2238C85.5135 51.3837 85.8432 50.7164 85.868 50.2685C85.8946 49.7914 85.6019 49.2321 84.9267 48.5568C84.3255 47.9557 83.5462 47.383 82.7626 46.807C82.6872 46.7516 82.6118 46.6962 82.5365 46.6407C82.1178 46.3322 81.7023 46.0211 81.3447 45.7162C80.9928 45.4162 80.6579 45.0901 80.4267 44.7434C79.6638 43.5989 79.9129 42.3489 80.3186 41.2425C80.4976 40.754 80.7257 40.246 80.9498 39.7467C80.9825 39.6738 81.0151 39.6011 81.0475 39.5287C81.3069 38.9487 81.5581 38.3701 81.7561 37.7758C82.5942 35.2616 82.7974 33.6486 82.6599 32.6734C82.5929 32.1985 82.4512 31.9185 82.3051 31.7524C82.1647 31.5927 81.9772 31.4884 81.716 31.4404C81.147 31.336 80.3097 31.5163 79.3157 31.9545C78.4461 32.3379 77.5449 32.8788 76.7511 33.4394ZM84.0578 32.4763C84.2424 33.7848 83.9515 35.6541 83.0955 38.2223C82.8734 38.8884 82.5969 39.5223 82.3363 40.105C82.3026 40.1804 82.2693 40.2546 82.2364 40.3279C82.01 40.8326 81.8046 41.2904 81.6441 41.7284C81.2715 42.7446 81.2349 43.4106 81.6014 43.9603C81.7232 44.143 81.9397 44.3683 82.2606 44.6419C82.5757 44.9105 82.9543 45.195 83.3739 45.5042C83.4509 45.5608 83.5293 45.6184 83.6087 45.6767C84.3745 46.239 85.2429 46.8766 85.9249 47.5586C86.6614 48.295 87.3394 49.2358 87.2776 50.3468C87.2143 51.4872 86.3969 52.4964 84.9175 53.421C84.2026 53.8678 83.5225 54.2691 82.8859 54.642C82.7965 54.6944 82.7079 54.7462 82.6204 54.7974C82.0822 55.1122 81.5798 55.4061 81.1076 55.696C80.0071 56.3715 79.1233 56.9942 78.439 57.7188C77.1269 59.1081 76.4336 60.9939 76.7759 64.7584C76.953 66.7072 77.0026 68.1283 76.9082 69.1553C76.8156 70.1619 76.5728 70.9478 76.0083 71.4417C75.4404 71.9387 74.7119 71.9916 74.075 71.9802C73.8006 71.9753 73.5013 71.9561 73.1991 71.9367C73.1388 71.9329 73.0783 71.929 73.0179 71.9252C72.6464 71.902 72.2561 71.8811 71.8376 71.8811C71.5249 71.8811 71.2143 71.8761 70.9049 71.8711C70.295 71.8614 69.6895 71.8516 69.0804 71.8803C68.1739 71.923 67.38 72.0496 66.7559 72.3433C66.1608 72.6234 65.7088 73.0588 65.4571 73.7879C65.1944 74.5488 65.1306 75.6877 65.471 77.3897C65.8147 79.1082 66.2847 79.9747 66.7131 80.3776C67.0829 80.7252 67.482 80.7829 67.9868 80.6418C68.5368 80.4879 69.1434 80.1087 69.7672 79.6422C70.0272 79.4478 70.2761 79.2492 70.5184 79.056C70.5614 79.0217 70.6042 78.9876 70.6468 78.9537C70.9213 78.7352 71.1973 78.5184 71.4461 78.3526C71.6837 78.1941 71.9598 77.98 72.2942 77.7167C72.33 77.6885 72.3664 77.6598 72.4033 77.6307C72.7037 77.3938 73.0406 77.1282 73.4044 76.8604C74.222 76.2585 75.2084 75.6205 76.3544 75.1907C77.5074 74.7584 78.8225 74.5367 80.2862 74.7684C81.7479 74.9999 83.3123 75.6763 84.9768 76.9709C85.9104 77.697 86.4179 78.6079 86.5133 79.6401C86.6061 80.6439 86.3024 81.6848 85.7762 82.6959C84.7276 84.7105 82.6751 86.8352 80.3117 88.7527C77.9343 90.6815 75.1795 92.4509 72.6552 93.7411C71.3927 94.3864 70.1778 94.917 69.0885 95.2877C68.0103 95.6547 67.0097 95.881 66.1906 95.881C64.6641 95.881 62.1478 95.3213 59.2716 94.4617C56.3675 93.5938 53.0144 92.3944 49.7753 91.0633C46.5381 89.7329 43.3982 88.2642 40.9257 86.8545C39.6903 86.1502 38.6075 85.4527 37.7583 84.7866C36.9271 84.1346 36.2497 83.4596 35.9124 82.7849C35.2588 81.4779 35.4378 80.2086 36.0897 79.1004C36.7206 78.0278 37.7941 77.0957 38.9809 76.3197C41.36 74.7642 44.4465 73.6748 46.2876 73.3066C46.8711 73.1898 47.7248 73.0718 48.7057 72.9362C49.2447 72.8616 49.8223 72.7818 50.4145 72.6939C52.1169 72.4413 54.0001 72.1156 55.6761 71.6429C57.377 71.1632 58.7559 70.5605 59.5396 69.8146C59.9182 69.4543 60.1293 69.0876 60.1994 68.7077C60.269 68.3296 60.2141 67.857 59.9134 67.2556C59.672 66.7728 59.4545 66.3279 59.2541 65.9181C58.8556 65.103 58.525 64.4269 58.2095 63.8676C57.7277 63.0133 57.3747 62.6145 57.0531 62.4537C56.7944 62.3243 56.4192 62.2867 55.6718 62.6211C54.9127 62.9607 53.9091 63.6229 52.4977 64.6812C51.017 65.7915 49.7165 66.2832 48.5717 66.2559C47.401 66.2281 46.5188 65.6615 45.8908 64.9287C45.2747 64.2099 44.8849 63.3147 44.6486 62.5343C44.4128 61.7559 44.3096 61.0241 44.3096 60.587C44.3096 60.3828 44.1812 59.7857 43.8276 58.9711C43.4863 58.1851 42.9693 57.2766 42.2718 56.456C40.8862 54.826 38.8396 53.5846 35.9922 54.2173C34.2768 54.5985 32.9069 54.3494 32.0137 53.546C31.1212 52.7432 30.8778 51.5421 31.0847 50.403C31.4983 48.1255 33.7325 45.7654 37.2496 45.7654C38.7115 45.7654 41.0237 45.4928 43.1577 44.682C45.3025 43.8671 47.1386 42.5608 47.8827 40.5764C48.4316 39.1127 49.0588 38.1036 49.7844 37.4855C50.5415 36.8405 51.3646 36.6571 52.1729 36.7726C52.9404 36.8822 53.6602 37.2558 54.28 37.6461C54.5953 37.8446 54.9009 38.0581 55.1862 38.2603C55.2392 38.2979 55.2914 38.335 55.3428 38.3715C55.5727 38.5349 55.7866 38.6869 55.994 38.8252C56.5825 39.2175 57.1449 39.9016 57.6517 40.518C57.6946 40.5702 57.7371 40.6218 57.7792 40.6728C58.3615 41.3784 58.92 42.0281 59.5317 42.4487C60.1128 42.8481 60.6876 43.0052 61.3569 42.806C62.0765 42.5918 63.0227 41.9326 64.2216 40.3909C65.4435 38.8198 66.3162 37.5544 66.9969 36.5552C67.0568 36.4674 67.1155 36.381 67.1731 36.2964C67.757 35.4378 68.2281 34.745 68.6683 34.2608C69.1778 33.7003 69.7327 33.3196 70.4902 33.2701C71.1738 33.2255 71.9261 33.4636 72.8057 33.8154C74.1102 34.3373 74.7075 34.144 74.9578 33.9658C75.2363 33.7676 75.367 33.3934 75.367 33.0579V32.7002L75.6555 32.4887C76.5665 31.8206 77.6612 31.1411 78.7462 30.6628C79.8037 30.1965 80.9694 29.8681 81.9709 30.0519C82.495 30.1481 82.9847 30.3871 83.3654 30.8203C83.7405 31.2469 83.9638 31.8093 84.0578 32.4763Z" fill="white"/>
</mask>
<g mask="url(#mask0_1_7697)">
<path id="Ellipse 175" d="M89.5015 60.0359C89.5015 75.6297 76.8602 88.271 61.2664 88.271C45.6725 88.271 33.0312 75.6297 33.0312 60.0359C33.0312 44.4421 45.6725 31.8008 61.2664 31.8008C76.8602 31.8008 89.5015 44.4421 89.5015 60.0359Z" fill="white"/>
</g>
</g>
</g>
</g>
<defs>
<linearGradient id="paint0_linear_1_7697" x1="103.516" y1="12" x2="26.5156" y2="114.5" gradientUnits="userSpaceOnUse">
<stop stop-color="#4392E3"/>
<stop offset="1" stop-color="#004E9F"/>
</linearGradient>
</defs>
</svg>
